<?xml version="1.0" encoding="utf-8"?>
<!-- Generator: Adobe Illustrator 18.0.0, SVG Export Plug-In . SVG Version: 6.00 Build 0)  -->
<!DOCTYPE svg PUBLIC "-//W3C//DTD SVG 1.1//EN" "http://www.w3.org/Graphics/SVG/1.1/DTD/svg11.dtd">
<svg version="1.1" id="Layer_1" xmlns="http://www.w3.org/2000/svg" xmlns:xlink="http://www.w3.org/1999/xlink" x="0px" y="0px"
	 viewBox="506 -16 80 80" enable-background="new 506 -16 80 80" xml:space="preserve">
<circle fill="#707070" cx="546" cy="24" r="25.7"/>
<g>
	<path fill="#FFFFFF" d="M542.2,15.2c1-0.6,2.2-0.9,3.6-0.9c1.9,0,3.4,0.4,4.7,1.3c1.2,0.9,1.9,2.2,1.9,4c0,1.1-0.3,2-0.8,2.7
		c-0.3,0.4-0.9,1-1.8,1.7l-0.9,0.7c-0.5,0.4-0.8,0.8-1,1.3c-0.1,0.3-0.2,0.8-0.2,1.5h-3.4c0-1.4,0.2-2.4,0.4-2.9
		c0.2-0.5,0.8-1.1,1.7-1.8l0.9-0.7c0.3-0.2,0.5-0.5,0.7-0.7c0.3-0.5,0.5-1,0.5-1.5c0-0.6-0.2-1.2-0.6-1.7c-0.4-0.5-1-0.8-2-0.8
		c-1,0-1.6,0.3-2,1s-0.6,1.3-0.6,2h-3.6C539.9,17.9,540.7,16.2,542.2,15.2z M544.3,30.2h3.7v3.6h-3.7V30.2z"/>
</g>
</svg>
