<?xml version="1.0" encoding="utf-8"?>
<!-- Generator: Adobe Illustrator 18.0.0, SVG Export Plug-In . SVG Version: 6.00 Build 0)  -->
<!DOCTYPE svg PUBLIC "-//W3C//DTD SVG 1.1//EN" "http://www.w3.org/Graphics/SVG/1.1/DTD/svg11.dtd">
<svg version="1.1" id="Layer_1" xmlns="http://www.w3.org/2000/svg" xmlns:xlink="http://www.w3.org/1999/xlink" x="0px" y="0px"
	 viewBox="1095.2 -341.7 80 80" enable-background="new 1095.2 -341.7 80 80" xml:space="preserve">
<path fill="#8F2909" d="M1145-301.7l12.1-12.1c1.9-1.9,1.9-5.1,0-7l-2.7-2.7c-1.9-1.9-5.1-1.9-7,0l-12.1,12.1l-12.1-12.1
	c-1.9-1.9-5.1-1.9-7,0l-2.7,2.7c-1.9,1.9-1.9,5.1,0,7l12.1,12.1l-12.1,12.1c-1.9,1.9-1.9,5.1,0,7l2.7,2.7c1.9,1.9,5.1,1.9,7,0
	l12.1-12.1l12.1,12.1c1.9,1.9,5.1,1.9,7,0l2.7-2.7c1.9-1.9,1.9-5.1,0-7L1145-301.7z"/>
</svg>
