<?xml version="1.0" encoding="UTF-8" standalone="no"?>
<svg width="250px" height="250px" viewBox="0 0 250 250" version="1.1" xmlns="http://www.w3.org/2000/svg" xmlns:xlink="http://www.w3.org/1999/xlink">
    <!-- Generator: Sketch 3.6.1 (26313) - http://www.bohemiancoding.com/sketch -->
    <title>Rotate</title>
    <desc>Created with Sketch.</desc>
    <defs></defs>
    <g id="Page-1" stroke="none" stroke-width="1" fill="none" fill-rule="evenodd">
        <g id="Rotate">
            <g id="Group-2" transform="translate(24.000000, 47.000000)">
                <g id="ic_screen_rotation_black_24px" transform="translate(47.000000, 0.000000)">
                    <g id="Group">
                        <path d="M0,0 L109,0 L109,109 L0,109 L0,0 Z" id="Shape"></path>
                        <path d="M74.8466667,11.445 C89.6979167,18.4845833 100.325417,32.8816667 101.960417,49.9583333 L108.772917,49.9583333 C106.456667,21.9816667 83.0670833,0 54.5,0 L51.5025,0.13625 L68.80625,17.44 L74.8466667,11.445 L74.8466667,11.445 Z M46.46125,7.94791667 C43.7816667,5.26833333 39.4670833,5.26833333 36.8329167,7.94791667 L7.94791667,36.8329167 C5.26833333,39.5125 5.26833333,43.8270833 7.94791667,46.46125 L62.53875,101.052083 C65.2183333,103.731667 69.5329167,103.731667 72.1670833,101.052083 L101.052083,72.1670833 C103.731667,69.4875 103.731667,65.1729167 101.052083,62.53875 L46.46125,7.94791667 L46.46125,7.94791667 Z M67.3529167,96.2379167 L12.7620833,41.6470833 L41.6470833,12.7620833 L96.2379167,67.3529167 L67.3529167,96.2379167 L67.3529167,96.2379167 Z M34.1533333,97.555 C19.3020833,90.5608333 8.67458333,76.1183333 7.03958333,59.0416667 L0.227083333,59.0416667 C2.54333333,87.0183333 25.9329167,109 54.5,109 L57.4975,108.86375 L40.19375,91.56 L34.1533333,97.555 L34.1533333,97.555 Z" id="Shape" fill="#333333"></path>
                    </g>
                </g>
                <path d="M14.064,148.144 C12.888,143.824 10.968,142.768 9.408,142.936 C12.264,142.6 14.088,141.52 14.088,138.592 C14.088,134.584 10.728,134.008 5.952,134.008 L0,134.008 L0,134.416 C1.056,134.416 1.728,135.064 1.728,136.552 L1.728,148 C1.728,149.632 1.032,150.496 0,150.496 L0,150.904 L6.984,150.904 L6.984,150.496 C5.976,150.496 5.208,149.632 5.208,148 L5.208,143.2 L6.336,143.2 C6.336,143.2 8.544,143.2 9.336,145.672 C11.016,150.88 10.392,150.88 14.664,150.904 L16.872,150.904 L16.872,150.496 C16.248,150.448 14.544,149.968 14.064,148.144 L14.064,148.144 Z M5.952,142.792 L5.208,142.792 L5.208,134.416 L5.952,134.416 C8.28,134.416 10.176,134.416 10.176,138.592 C10.176,142.768 8.28,142.792 5.952,142.792 L5.952,142.792 Z M23.5883077,139.6 C19.9403077,139.6 17.8763077,142.192 17.8763077,145.36 C17.8763077,148.504 19.9403077,151.12 23.5883077,151.12 C27.2603077,151.12 29.3003077,148.504 29.3003077,145.36 C29.3003077,142.192 27.2603077,139.6 23.5883077,139.6 L23.5883077,139.6 Z M23.5883077,150.712 C21.8603077,150.712 21.4043077,149.704 21.4043077,145.36 C21.4043077,141.016 21.8603077,140.008 23.5883077,140.008 C25.3163077,140.008 25.7483077,141.016 25.7483077,145.36 C25.7483077,149.704 25.3163077,150.712 23.5883077,150.712 L23.5883077,150.712 Z M36.5446154,149.416 C35.3446154,149.416 34.7686154,148.72 34.7686154,147.376 L34.7686154,140.224 L37.5286154,140.224 L37.6246154,139.816 L34.7686154,139.816 L34.7686154,136.096 L31.7686154,136.6 L31.7686154,139.816 L30.4966154,139.816 L30.5686154,140.224 L31.7686154,140.224 L31.7686154,147.448 C31.7686154,150.352 32.8966154,151.12 34.7926154,151.12 C36.4006154,151.12 37.8646154,149.92 38.3446154,148.792 L37.9846154,148.576 C37.7686154,148.936 37.2406154,149.416 36.5446154,149.416 L36.5446154,149.416 Z M45.6369231,148.432 C45.4209231,149.008 44.8689231,149.656 44.0529231,149.656 C42.4929231,149.656 42.4929231,148.072 42.4929231,148.072 C42.4929231,146.848 43.2849231,145.72 45.6369231,145.192 L45.6369231,148.432 L45.6369231,148.432 Z M49.8129231,149.656 C48.6369231,149.656 48.6609231,147.976 48.6609231,147.976 L48.6609231,144.4 C48.6609231,141.568 47.7969231,139.6 44.6529231,139.6 C44.6529231,139.6 43.4049231,139.504 42.3249231,140.08 C41.0049231,140.776 40.6929231,141.424 40.4529231,141.832 C40.2129231,142.24 40.2369231,142.816 40.5249231,143.272 C40.9569231,143.896 41.7969231,144.04 42.4209231,143.632 C43.0449231,143.2 43.2129231,142.36 42.7809231,141.736 C42.5649231,141.424 42.2529231,141.256 41.8929231,141.208 C41.7249231,141.184 41.8209231,140.776 42.5889231,140.392 C44.2449231,139.528 45.6369231,140.776 45.6369231,143.272 L45.6369231,144.76 C41.4369231,145.816 39.4209231,146.056 39.4209231,148.672 C39.4209231,151.12 42.1809231,151.12 42.1809231,151.12 C43.8849231,151.12 45.3009231,150.232 45.6609231,149.176 C45.9249231,151.12 48.0609231,151.12 48.0609231,151.12 C49.5729231,151.12 50.6769231,150.184 50.8689231,149.416 L50.4609231,149.248 C50.3169231,149.656 49.8129231,149.656 49.8129231,149.656 L49.8129231,149.656 Z M57.3932308,149.416 C56.1932308,149.416 55.6172308,148.72 55.6172308,147.376 L55.6172308,140.224 L58.3772308,140.224 L58.4732308,139.816 L55.6172308,139.816 L55.6172308,136.096 L52.6172308,136.6 L52.6172308,139.816 L51.3452308,139.816 L51.4172308,140.224 L52.6172308,140.224 L52.6172308,147.448 C52.6172308,150.352 53.7452308,151.12 55.6412308,151.12 C57.2492308,151.12 58.7132308,149.92 59.1932308,148.792 L58.8332308,148.576 C58.6172308,148.936 58.0892308,149.416 57.3932308,149.416 L57.3932308,149.416 Z M63.2455385,144.736 C63.2455385,142.432 64.2295385,140.008 65.6455385,140.008 C66.9655385,140.008 67.9495385,141.712 67.9495385,144.736 L63.2455385,144.736 Z M65.7655385,139.6 C62.4535385,139.6 60.1495385,142.024 60.1495385,145.408 C60.1495385,148.216 62.3095385,151.12 65.4535385,151.12 C68.6695385,151.12 70.0855385,149.224 70.4695385,147.976 L70.0615385,147.76 C69.4615385,148.888 67.5415385,149.368 66.2455385,149.08 C64.6375385,148.72 63.4375385,147.496 63.2455385,145.144 L70.8775385,145.144 C70.8775385,141.4 69.2455385,139.6 65.7655385,139.6 L65.7655385,139.6 Z M85.8461538,139.816 L85.8461538,140.224 C88.6301538,140.2 87.0461538,143.872 87.0461538,143.872 L85.7741538,147.112 L83.2301538,141.688 C83.2301538,141.688 82.6061538,140.224 83.8541538,140.224 L83.8541538,139.816 L78.1901538,139.816 L78.1901538,140.224 C78.5501538,140.224 79.3181538,140.224 79.7021538,141.16 C79.7021538,141.16 82.7501538,147.688 84.2381538,151.12 L83.3261538,153.592 C82.9421538,154.6 82.3661538,154.768 82.2701538,154.48 C82.1501538,154.072 81.8861538,153.688 81.4541538,153.496 C80.6141538,153.112 79.6301538,153.496 79.2461538,154.336 C78.8861538,155.176 79.2461538,156.16 80.0861538,156.544 C80.6621538,156.808 81.5021538,156.664 81.9341538,156.304 C82.3901538,155.944 83.1101538,155.272 83.7341538,153.64 L87.4061538,143.968 C88.9421538,140.272 90.0461538,140.224 90.5501538,140.224 L90.5501538,139.816 L85.8461538,139.816 Z M96.5704615,139.6 C92.9224615,139.6 90.8584615,142.192 90.8584615,145.36 C90.8584615,148.504 92.9224615,151.12 96.5704615,151.12 C100.242462,151.12 102.282462,148.504 102.282462,145.36 C102.282462,142.192 100.242462,139.6 96.5704615,139.6 L96.5704615,139.6 Z M96.5704615,150.712 C94.8424615,150.712 94.3864615,149.704 94.3864615,145.36 C94.3864615,141.016 94.8424615,140.008 96.5704615,140.008 C98.2984615,140.008 98.7304615,141.016 98.7304615,145.36 C98.7304615,149.704 98.2984615,150.712 96.5704615,150.712 L96.5704615,150.712 Z M114.902769,148.696 L114.902769,139.6 L110.774769,140.056 L110.774769,140.464 C111.998769,140.608 111.902769,140.92 111.902769,142.384 L111.902769,147.808 C111.398769,148.768 110.486769,149.368 109.814769,149.368 C108.422769,149.368 107.798769,148.72 107.798769,147.376 L107.798769,139.6 L103.478769,140.056 L103.478769,140.464 C104.870769,140.656 104.822769,140.872 104.822769,142.312 L104.822769,147.448 C104.822769,150.328 105.950769,151.12 107.846769,151.12 C109.334769,151.12 111.326769,149.896 111.902769,148.528 L111.902769,150.64 C111.902769,150.64 111.926769,151.192 112.574769,151.096 L116.126769,150.472 L116.126769,150.064 C115.118769,149.944 114.902769,149.848 114.902769,148.696 L114.902769,148.696 Z M123.779077,139.72 C123.203077,139.96 122.219077,140.32 120.947077,142.312 L120.947077,139.6 L116.723077,140.56 L116.723077,140.968 C117.707077,141.472 117.923077,141.832 117.923077,142.648 L117.923077,147.976 C117.923077,149.224 117.899077,150.208 116.963077,150.496 L116.963077,150.904 L121.931077,150.904 L121.931077,150.496 C121.067077,150.256 120.947077,149.32 120.947077,147.976 L120.947077,142.984 C121.835077,141.544 122.819077,141.304 122.819077,141.568 C122.819077,142 123.011077,142.408 123.371077,142.744 C124.139077,143.392 125.243077,143.296 125.891077,142.552 C126.539077,141.832 126.467077,140.68 125.723077,140.032 C125.195077,139.6 124.283077,139.504 123.779077,139.72 L123.779077,139.72 Z M142.227692,147.4 C142.227692,149.08 141.219692,150.28 139.587692,150.28 C137.643692,150.28 136.851692,148.84 136.851692,144.976 C136.851692,141.328 137.619692,140.008 139.371692,140.008 C140.739692,140.008 142.227692,140.992 142.227692,144.016 L142.227692,147.4 Z M145.203692,148.576 L145.203692,133 L141.003692,133.888 L141.003692,134.296 C141.987692,134.656 142.227692,134.896 142.227692,135.736 L142.227692,140.32 C141.459692,139.864 140.451692,139.6 139.347692,139.6 C135.987692,139.6 133.443692,141.328 133.443692,145.192 C133.443692,148.984 135.843692,151.12 138.555692,151.12 C139.683692,151.12 141.459692,150.592 142.227692,149.176 L142.227692,150.664 C142.227692,150.664 142.227692,151.192 142.899692,151.096 L146.427692,150.568 L146.427692,150.16 C145.443692,150.04 145.203692,149.752 145.203692,148.576 L145.203692,148.576 Z M150.6,144.736 C150.6,142.432 151.584,140.008 153,140.008 C154.32,140.008 155.304,141.712 155.304,144.736 L150.6,144.736 Z M153.12,139.6 C149.808,139.6 147.504,142.024 147.504,145.408 C147.504,148.216 149.664,151.12 152.808,151.12 C156.024,151.12 157.44,149.224 157.824,147.976 L157.416,147.76 C156.816,148.888 154.896,149.368 153.6,149.08 C151.992,148.72 150.792,147.496 150.6,145.144 L158.232,145.144 C158.232,141.4 156.6,139.6 153.12,139.6 L153.12,139.6 Z M166.196308,139.816 L166.196308,140.224 C168.812308,140.224 167.324308,143.848 167.324308,143.848 L166.004308,147.112 L163.628308,142.024 C163.628308,142.024 162.740308,140.224 164.084308,140.224 L164.084308,139.816 L158.420308,139.816 L158.420308,140.224 C158.852308,140.224 159.476308,140.224 160.052308,141.496 C160.052308,141.496 160.268308,141.904 164.516308,151.12 L164.900308,151.12 L167.756308,143.944 C169.292308,140.248 170.324308,140.224 170.876308,140.224 L170.876308,139.816 L166.196308,139.816 Z M175.528615,136.048 C175.528615,135.136 174.784615,134.416 173.872615,134.416 C172.960615,134.416 172.240615,135.136 172.240615,136.048 C172.240615,136.96 172.960615,137.68 173.872615,137.68 C174.784615,137.68 175.528615,136.96 175.528615,136.048 L175.528615,136.048 Z M175.600615,147.976 L175.600615,139.6 L171.400615,140.56 L171.400615,140.968 C172.384615,141.496 172.624615,141.832 172.624615,142.648 L172.624615,147.976 C172.624615,149.2 172.576615,150.208 171.664615,150.496 L171.664615,150.904 L176.584615,150.904 L176.584615,150.496 C175.720615,150.256 175.600615,149.32 175.600615,147.976 L175.600615,147.976 Z M188.148923,147.808 C187.596923,148.6 185.700923,149.248 184.500923,148.984 C182.844923,148.624 181.452923,147.472 181.452923,144.88 C181.452923,140.752 183.780923,140.008 184.644923,140.008 C185.604923,140.008 186.132923,140.416 185.916923,140.512 C185.556923,140.704 185.268923,141.016 185.172923,141.472 C184.932923,142.312 185.436923,143.2 186.300923,143.416 C187.164923,143.656 188.028923,143.104 188.268923,142.264 C188.436923,141.688 188.196923,141.016 187.788923,140.656 C187.380923,140.296 186.348923,139.6 184.644923,139.6 C180.540923,139.6 178.428923,142.552 178.428923,145.312 C178.428923,148.12 180.564923,151.12 183.708923,151.12 C186.708923,151.12 188.148923,149.248 188.484923,148.024 L188.148923,147.808 Z M193.161231,144.736 C193.161231,142.432 194.145231,140.008 195.561231,140.008 C196.881231,140.008 197.865231,141.712 197.865231,144.736 L193.161231,144.736 Z M195.681231,139.6 C192.369231,139.6 190.065231,142.024 190.065231,145.408 C190.065231,148.216 192.225231,151.12 195.369231,151.12 C198.585231,151.12 200.001231,149.224 200.385231,147.976 L199.977231,147.76 C199.377231,148.888 197.457231,149.368 196.161231,149.08 C194.553231,148.72 193.353231,147.496 193.161231,145.144 L200.793231,145.144 C200.793231,141.4 199.161231,139.6 195.681231,139.6 L195.681231,139.6 Z" id="Rotate-your-device" fill="#333333"></path>
            </g>
        </g>
    </g>
</svg>