<?xml version="1.0" encoding="UTF-8" standalone="no"?>
<svg width="1316px" height="562px" viewBox="0 0 1316 562" version="1.1" xmlns="http://www.w3.org/2000/svg" xmlns:xlink="http://www.w3.org/1999/xlink">
    <!-- Generator: Sketch 3.6.1 (26313) - http://www.bohemiancoding.com/sketch -->
    <title>Guitar-small</title>
    <desc>Created with Sketch.</desc>
    <defs></defs>
    <g id="Page-1" stroke="none" stroke-width="1" fill="none" fill-rule="evenodd">
        <g id="Guitar-small">
            <g id="guitar-small" transform="translate(621.500000, 213.000000) rotate(-315.000000) translate(-621.500000, -213.000000) translate(258.000000, -302.000000)">
                <g id="body_4_" transform="translate(0.000000, 448.000000)">
                    <g id="body_7_" transform="translate(5.000000, 4.000000)">
                        <path d="M240.3,566.4 C200.9,565.9 161.9,545.4 132.3,527.6 C72.7,491.7 48.5,466.2 34,448 C26.9,439 20.9,429.6 16.3,420 C2.6,391.6 2.9,362.2 17.4,332.7 C32.7,301.4 59.7,277.8 79.7,263.4 C114.9,238.2 140.7,215 154.2,196.4 C154.4,196.1 154.5,195.9 154.6,195.8 C164,183.5 172.8,146.3 178.5,117.2 C188.9,64.2 203,42.6 214.1,29.6 C221.4,21.1 237.3,6.7 250.5,6.7 C254.5,6.7 257.9,8.1 260.8,11 C267.2,17.4 261,30.8 256,41.6 C254.5,44.8 253.1,47.9 252.1,50.6 C242.8,75.8 250.8,99 262.1,109.9 C271.2,118.7 280.7,122.6 292.9,122.6 C297.8,122.6 303.1,122 309.7,120.7 L338.1,168 C334.9,175.4 332.9,185.6 332.6,192.5 C332.4,197.9 333.6,202.9 336.3,208 C343.9,222.3 360.1,231.2 378.5,231.2 C381.3,231.2 384.1,231 386.8,230.6 C401.4,228.3 410.6,219.9 419.5,211.8 C424.6,207.2 429.4,202.8 435.1,199.5 C437.1,198.3 439.1,197.7 441.1,197.7 C446.9,197.7 452.4,203.2 454.1,210.7 C455.6,217.4 453.7,225.2 451.5,232 C447.1,245.8 438.6,257.6 430.9,267.2 C425.4,274.1 417.9,279.3 409.9,284.9 C405.9,287.7 401.7,290.7 397.8,293.8 C369.8,316.6 356,340 353.1,369.9 C352.2,378.8 351.9,387.8 351.6,396.5 C351.4,403.8 351.1,411.4 350.5,418.8 C348.8,439.5 345.7,457.7 340.8,474.5 C331.4,507.1 303.9,547.2 269.6,560.9 C260.8,564.4 250.1,566.5 240.9,566.5 L240.3,566.4 L240.3,566.4 Z" id="Shape" fill="#E71D36"></path>
                        <path d="M250.5,12.7 C252.9,12.7 254.7,13.5 256.6,15.3 C260,18.7 253.6,32.5 250.6,39.1 C249,42.4 247.6,45.6 246.5,48.5 C239.3,67.9 239.9,96.8 257.9,114.2 C268.1,124 279.2,128.5 292.9,128.5 C297.1,128.5 301.5,128.1 306.7,127.2 L331.4,168.4 C328.3,176.8 326.8,186.5 326.6,192.1 C326.3,198.5 327.8,204.7 331,210.7 C339.7,227 357.9,237.1 378.5,237.1 C381.6,237.1 384.7,236.9 387.7,236.4 C404,233.8 414.4,224.4 423.5,216.1 C428.3,211.7 432.9,207.5 438.1,204.5 C439.2,203.9 440.2,203.5 441.1,203.5 C444,203.5 447.2,207.3 448.3,211.9 C449.5,217.2 447.6,224.4 445.8,230.1 C441.7,243 433.6,254.2 426.2,263.4 C421.2,269.6 414.1,274.6 406.5,280 C402.4,282.9 398.1,285.9 394.1,289.2 C364.7,313.1 350.3,337.8 347.2,369.4 C346.3,378.5 346,387.6 345.7,396.4 C345.4,404 345.2,411.2 344.6,418.4 C343,438.7 339.9,456.5 335.2,472.9 C330.5,489.2 321,507.1 309.3,521.9 C296.5,538 282.1,549.6 267.6,555.4 C259.4,558.7 249.6,560.6 241.2,560.6 L240.5,560.6 C224,560.4 206.5,556.5 186.8,548.8 C171.3,542.7 154.9,534.4 135.4,522.6 C114.1,509.8 97.5,498.6 83,487.3 C65,473.2 50.5,459.2 38.7,444.4 C31.8,435.7 26.1,426.7 21.7,417.6 C8.8,390.9 9.2,363.3 22.8,335.5 C37.5,305.3 63.8,282.4 83.2,268.5 C119,242.9 145.2,219.3 159.1,200.2 C159.3,200 159.4,199.8 159.5,199.7 C167.6,189.1 176.1,161.8 184.6,118.6 C188.3,100 192.1,85.4 196.9,72.8 C202.9,56.8 210.1,44.1 218.9,33.7 C227.6,23.2 241.4,12.7 250.5,12.7 L250.5,12.7 L250.5,12.7 Z M250.5,0.7 C235.2,0.7 218,15.9 209.6,25.7 C188.2,50.6 178.8,84.5 172.6,116 C160.6,177 152,189.3 149.8,192.1 C147.6,194.9 132.6,218 76.1,258.5 C23.6,296.1 -20.9,356.9 10.8,422.6 C15.8,433 22.1,442.7 29.2,451.7 C55.9,485.3 92.7,510.8 129.1,532.7 C161.9,552.4 201.1,571.9 240.2,572.4 L241,572.4 C251.2,572.4 262.5,570.1 271.9,566.3 C307,552.3 336.4,511.2 346.6,476 C352,457.5 354.9,438.3 356.5,419.2 C357.8,403 357.5,386.6 359,370.4 C362,339.1 377.6,317.8 401.5,298.4 C412.6,289.4 426.4,282.1 435.5,270.9 C444.6,259.6 452.8,247.7 457.2,233.7 C459.6,226 461.8,217.2 459.9,209.2 C457.6,199.5 450.1,191.5 441,191.5 C438.1,191.5 435.1,192.3 432,194.1 C415.2,203.8 406.2,221.3 385.7,224.6 C383.3,225 380.8,225.2 378.3,225.2 C363.6,225.2 348.5,218.5 341.4,205.2 C339.1,200.9 338.2,196.8 338.4,192.8 C338.7,186 341,174.5 344.7,167.8 L312.4,114 C304.9,115.7 298.5,116.7 292.6,116.7 C282.4,116.7 274.2,113.6 265.9,105.7 C252.4,92.7 251.3,69.6 257.4,52.8 C261.8,40.8 276.6,18.7 264.7,6.9 C260.7,2.5 255.7,0.7 250.5,0.7 L250.5,0.7 L250.5,0.7 Z" id="Shape" fill="#EC4A5E"></path>
                    </g>
                    <path d="M145.1,548.3 C140.8,545.9 136.5,543.4 131.8,540.6 C70.8,503.9 45.7,477.4 30.7,458.5 C23.1,448.9 16.7,438.8 11.7,428.6 C-3.5,397.2 -3.1,364.7 12.8,332.1 C29.1,298.8 57.5,273.9 78.5,258.9 C112.3,234.7 138,211.7 150.6,194.3 C150.9,193.9 151.1,193.7 151.2,193.5 C154.2,189.6 162.3,174.6 173.2,119.3 C184.1,63.9 199.2,40.8 211.2,26.9 C214.5,23.1 243.9,-9.9 267.6,3.4 C269.6,4.5 271.5,6 273.2,7.7 C284.9,19.3 276.6,37.1 270.5,50.1 C269.1,53.1 267.8,56 266.9,58.3 C261.4,73.3 262.1,94.7 274.3,106.4 C276.9,108.9 279.4,110.8 282,112.3 C290.4,117 299.7,117.4 316.6,113.6 C318.5,113.2 320.4,114 321.4,115.7 L353.7,169.5 C354.5,170.9 354.6,172.6 353.8,174 C350.6,179.7 348.3,190.4 348,197 C347.9,200.4 348.7,203.7 350.5,207.1 C353.3,212.3 357.4,216.4 363,219.6 C370.9,224.1 380.8,225.8 390.2,224.3 C401.6,222.5 409.3,215.5 417.4,208.1 C422.7,203.3 428.1,198.3 434.9,194.4 C442,190.3 449.6,190.1 456.3,193.9 C462.6,197.5 467.5,204.4 469.4,212.3 C471.5,221.5 469.2,231 466.6,239.2 C461.7,254.7 452.5,267.4 444.1,277.8 C437.7,285.8 429.2,291.8 421,297.5 C416.9,300.4 413.1,303.1 409.5,306 C383.5,327.1 371.3,347.8 368.6,375 C367.8,383.6 367.5,392.4 367.2,400.9 C367,408.4 366.7,416.1 366.1,423.7 C364.4,445.1 361.1,464 356.1,481.4 C346,516.4 316.2,559.7 278.7,574.7 C268.2,578.9 256,581.2 245.2,581.1 C215.7,580.5 183.9,570.2 145.1,548.3 L145.1,548.3 Z M263.2,11.2 C257.2,7.8 249.2,8.8 239.7,14.3 C228.9,20.5 220.4,29.9 218,32.7 C206.8,45.8 192.5,67.6 182,121 C173.9,162.5 165.7,189.5 158.4,199 C158.3,199.1 158.1,199.4 157.9,199.6 C144.5,218.1 118.8,241.1 83.7,266.2 C63.6,280.6 36.3,304.5 20.9,336 C6.3,366 5.9,395.8 19.8,424.6 C24.5,434.3 30.5,443.8 37.7,452.8 C65.4,487.7 105,513.9 136.4,532.8 C141,535.6 145.2,538 149.4,540.4 C186.9,561.5 217.3,571.5 245.2,571.9 C254.7,572 265.9,569.9 275.2,566.2 C309.9,552.3 337.8,511.7 347.3,478.8 C352.2,462 355.3,443.7 357,422.9 C357.6,415.5 357.9,407.9 358.1,400.5 C358.4,391.8 358.7,382.8 359.6,374 C362.5,344.6 376.1,321.4 403.8,298.9 C407.6,295.8 411.8,292.9 415.8,290 C423.5,284.6 431.5,279 437.1,272 C444.9,262.2 453.6,250.3 458,236.3 C460.2,229.3 462.2,221.2 460.6,214.2 C459.3,208.7 456.1,204 451.9,201.6 C448,199.4 443.7,199.5 439.4,202 C433.5,205.4 428.4,210 423.5,214.5 C414.7,222.5 405.7,230.7 391.6,233 C380.3,234.8 368.2,232.7 358.6,227.3 C351.7,223.4 346.2,217.9 342.6,211.3 C340,206.5 338.9,201.7 339.1,196.6 C339.4,189.7 341.5,179.3 344.8,172 L315.5,123.1 C301,126.1 288.9,126.5 277.7,120.2 C274.4,118.3 271.3,116 268.1,113 C252.5,98 252.2,72.6 258.5,55.3 C259.5,52.7 260.9,49.6 262.4,46.4 C267.6,35.2 274.1,21.3 266.9,14.1 C265.7,12.8 264.5,11.9 263.2,11.2 L263.2,11.2 Z" id="Shape" fill="#333333"></path>
                </g>
                <g id="scratch-plate_6_" transform="translate(134.000000, 589.000000)">
                    <g id="scratch-plate_10_" transform="translate(0.000000, 0.000000)">
                        <path d="M177.9,356.7 C177.7,356.7 176.4,356.6 173.3,354 C169.4,350.7 167,341.4 165.1,333.9 C164.1,330 163.2,326.4 162,323 C159,314.5 150.6,293.4 136.7,280.2 C131.2,275 124.7,271.1 119,267.7 L117.9,267 C100.2,256.3 81.8,246.3 64.1,236.5 C56.5,232.3 48.6,228 40.9,223.7 C38.6,222.4 36.2,221.2 33.8,220 C24.8,215.4 15.4,210.6 12.8,203.1 C8.8,191.8 12.8,176.8 18.5,167 C26.4,153.3 38.3,142 50,131.9 C53.3,129 56.7,126.3 60.3,123.4 C64.5,120 68.8,116.5 72.9,112.8 C95.6,92.6 113.3,66.5 125.4,35.4 C127.9,28.9 130,22.8 131.7,16.8 C132.5,14.2 133.7,12.3 134.5,11.5 C134.6,11.5 134.6,11.6 134.7,11.7 C136.1,13.3 138.6,19.1 139.9,22.3 C141.9,27 143.5,30.7 145.6,33.4 C150.6,39.8 155.6,43.8 160,47.4 C164.1,50.7 167.6,53.6 171.1,58 C173.3,60.8 175.6,63.1 177.9,65.4 C181.2,68.7 184.3,71.7 185.1,74.5 C192.7,101.7 215.1,118.7 243.6,118.7 C255.2,118.7 266.9,115.8 277.5,110.3 C288.4,104.6 297.2,97.7 304.2,89.1 C303.6,90.9 302.8,93 301.8,95.5 C301.5,96.3 301.2,97 301,97.6 C296.4,109.5 286.9,119.6 279.1,127.1 C273.8,132.2 267.9,137.1 262.8,141.1 C257.5,145.3 252.1,149.2 246.4,153.4 L244.3,154.9 C219.4,172.9 204.7,202.3 201.6,239.8 C201,247.6 200.8,255.4 200.6,263 L200.5,266.1 C200,288.2 198,320.5 186.4,346.4 C184.3,351 181.7,354.7 179.2,356.1 C178.9,356.5 178.3,356.7 177.9,356.7 L177.9,356.7 Z" id="Shape" fill="#FDFFFC"></path>
                        <path d="M135.9,37.4 C136.4,38.2 137,39 137.5,39.7 C143.2,47 148.9,51.6 153.5,55.4 C157.2,58.4 160.2,60.8 163,64.4 C165.6,67.7 168.3,70.4 170.7,72.7 C172.3,74.2 174.6,76.5 175.3,77.6 C179.9,93.8 189.2,107.2 202.1,116.3 C214,124.7 228.4,129.1 243.8,129.1 C250.6,129.1 257.3,128.2 264,126.6 C261.4,128.8 258.8,130.9 256.5,132.8 C251.4,136.9 246.1,140.7 240.5,144.8 L238.4,146.3 C211,166.2 194.7,198.2 191.4,238.9 C190.7,247 190.6,255 190.4,262.7 L190.3,265.8 C189.8,286.5 188,316.6 177.8,340.5 C176.8,337.4 175.9,333.8 175.3,331.4 C174.3,327.5 173.3,323.4 171.9,319.6 C167.9,308.2 158.9,286.9 143.9,272.7 C137.6,266.7 130.6,262.5 124.4,258.8 L123.3,258.1 C105.4,247.3 87,237.2 69.1,227.4 C61.5,223.2 53.7,218.9 46,214.7 C43.5,213.3 41,212 38.6,210.8 C32.4,207.6 24,203.3 22.7,199.8 C20.3,192.9 22.3,181.6 27.6,172.4 C34.7,160.1 45.9,149.5 56.9,139.9 C60.1,137.1 63.4,134.5 66.9,131.6 C71.2,128.2 75.6,124.6 79.9,120.7 C103.9,99.4 122.5,71.9 135.2,39.2 C135.5,38.5 135.7,38 135.9,37.4 L135.9,37.4 Z M134.5,0.6 C128.3,0.6 123.6,7.4 121.8,13.8 C120.1,19.8 118,25.7 115.8,31.5 C104.8,59.7 88.8,84.7 66.1,104.9 C58.7,111.5 50.8,117.4 43.3,123.9 C30.6,134.9 18.1,147 9.6,161.7 C2.3,174.4 -2,192.2 3.1,206.6 C8,220.5 24.1,226.3 35.9,232.9 C61.5,247.2 87.5,260.9 112.6,276 C118.5,279.5 124.6,283.1 129.6,287.8 C139.8,297.5 147.6,313.4 152.3,326.5 C156,337 157.7,354.5 166.7,362 C170.4,365.1 174.1,367.2 178.1,367.2 C180.4,367.2 182.8,366.5 185.3,365 C190.4,361.9 194.2,355.9 196.5,350.6 C208,324.9 210.9,294.1 211.5,266.2 C211.7,257.6 211.8,249 212.5,240.5 C214.9,210.5 225.6,181.5 250.9,163.2 C257.3,158.6 263.7,154 269.8,149.1 C275.6,144.4 281.4,139.6 286.8,134.5 C296.7,125 306.2,114.1 311.2,101.2 C313.4,95.4 321.4,78 314.3,72.5 C313.1,71.6 311.9,71.2 310.7,71.2 C305.3,71.2 299.5,78.6 296.7,82 C290.2,90 282.2,96.1 273.1,100.8 C263.9,105.6 253.9,108 244.1,108 C222.8,108 202.7,96.3 195.7,71.5 C193.4,63.2 185.1,58 179.8,51.3 C171.3,40.5 162.8,37.5 154.3,26.6 C151.1,22.5 146.9,7.3 141.8,3.3 C139.1,1.4 136.7,0.6 134.5,0.6 L134.5,0.6 L134.5,0.6 Z" id="Shape" fill="#EEFAF9"></path>
                    </g>
                    <path d="M307.6,82.9 C307.5,83.7 307.3,84.5 307,85.5 C306,89.3 304.5,93.1 303.3,95.9 C303,96.7 302.7,97.4 302.5,98 C297.8,110.1 288.2,120.4 280.3,128 C274.9,133.2 269,138 263.9,142.1 C258.6,146.4 252.9,150.5 247.4,154.5 L245.3,156 C232.1,165.5 221.8,178.2 214.7,193.7 C208.5,207.1 204.7,222.6 203.3,239.8 C202.7,247.6 202.5,255.4 202.3,262.9 L202.2,266 C201.2,312.4 193.6,334.4 188,346.9 C185.8,351.8 182.9,355.7 180.3,357.3 C178.4,358.5 177.4,358.5 175.4,357.4 C174.5,356.9 173.4,356.1 172.3,355.1 C168,351.5 165.6,341.9 163.7,334.2 C162.7,330.4 161.8,326.7 160.6,323.4 C157.6,315 149.3,294.1 135.7,281.2 C130.3,276.1 124.2,272.4 118.3,268.9 L117.2,268.2 C109.6,263.6 101.4,258.8 91.9,253.5 C82.4,248.2 72.8,242.9 63.4,237.7 C55.8,233.5 47.9,229.2 40.2,224.9 C37.9,223.6 35.5,222.4 33.2,221.2 C30.8,219.9 28.2,218.7 25.9,217.3 C17.6,212.6 13.3,208.5 11.5,203.5 C9.7,198.3 9.3,191.8 10.5,184.9 C11.6,178.5 14,171.8 17.3,166.1 C25.3,152.3 37.3,140.8 49.2,130.6 C52.5,127.7 56.1,124.8 59.5,122 C63.7,118.6 67.9,115.2 72.1,111.5 C94.6,91.4 112.2,65.6 124.2,34.6 C126.7,28.1 128.8,22.1 130.5,16.2 C131.6,12.4 133.7,9.9 134.6,9.5 C134.7,9.5 134.9,9.6 135.1,9.7 C135.4,9.9 135.7,10.1 136,10.3 C137.5,11.8 140.3,18.3 141.6,21.4 C143.5,26 145.1,29.6 147.1,32.2 C152,38.4 156.9,42.4 161.3,46 C165.3,49.2 169,52.3 172.6,56.9 C174.7,59.6 177.1,61.9 179.3,64.1 C182.8,67.5 186,70.7 186.9,73.9 C191.3,89.6 200.6,101.9 213.9,109.4 C232.3,119.8 256.5,119.5 277.1,108.8 C287.9,103.1 296.6,96.2 303.6,87.7 L304,87.3 C305.3,85.5 306.5,84 307.6,82.9 L307.6,82.9 Z M313.2,72 C307.1,68.5 299.6,78.1 296.4,82.1 C289.9,90.1 281.9,96.2 272.8,100.9 C255.1,110.1 234.2,110.7 218.1,101.7 C207.7,95.8 199.4,85.9 195.4,71.7 C193.1,63.4 184.8,58.2 179.5,51.5 C171,40.7 162.5,37.7 154,26.8 C150.8,22.7 146.6,7.5 141.5,3.5 C140.8,2.9 140.1,2.4 139.4,2 C130.8,-2.9 124,5.7 121.7,13.8 C120,19.8 117.9,25.7 115.7,31.5 C104.7,59.7 88.7,84.7 66,104.9 C58.6,111.5 50.7,117.4 43.2,123.9 C30.5,134.9 18,147 9.5,161.7 C2.2,174.4 -2.1,192.2 3,206.6 C6.1,215.3 13.5,220.8 21.5,225.3 C26.3,228 31.4,230.4 35.9,232.9 C53,242.5 70.4,251.8 87.5,261.4 C95.9,266.1 104.3,271 112.6,276 C118.5,279.5 124.6,283.1 129.6,287.8 C139.8,297.5 147.6,313.4 152.3,326.5 C156,337 157.7,354.5 166.7,362 C168.2,363.3 169.7,364.4 171.2,365.2 C175.6,367.7 180.1,368.1 185.2,365 C190.3,361.9 194.1,355.9 196.4,350.6 C207.9,324.9 210.8,294.1 211.4,266.2 C211.6,257.6 211.7,249 212.4,240.5 C214.8,210.5 225.5,181.5 250.8,163.2 C257.2,158.6 263.6,154 269.7,149.1 C275.5,144.4 281.3,139.6 286.7,134.5 C296.6,125 306.1,114.1 311.1,101.2 C313.3,95.4 321.3,78 314.2,72.5 C313.8,72.3 313.5,72.1 313.2,72 L313.2,72 L313.2,72 Z" id="scratch-plate_9_" fill="#333333"></path>
                </g>
                <g id="pickups_2_" transform="translate(182.000000, 656.000000)" stroke="#333333" stroke-width="6" fill="#2EC4B6">
                    <path d="M79.1,1.6 C74.5,-1 68.6,0.6 66,5.2 C63.4,9.8 65,15.7 69.6,18.3 L125.2,49.6 C129.8,52.2 135.7,50.6 138.3,46 C140.9,41.4 139.3,35.5 134.6,32.9 L79.1,1.6 L79.1,1.6 Z" id="Shape"></path>
                    <path d="M46,60.4 C41.4,57.8 35.5,59.4 32.9,64.1 C30.3,68.7 31.9,74.6 36.6,77.2 L92.2,108.5 C96.8,111.1 102.7,109.5 105.3,104.9 C107.9,100.3 106.3,94.4 101.7,91.8 L46,60.4 L46,60.4 Z" id="Shape"></path>
                    <path d="M15.6,116.8 C11.3,113.7 5.3,114.7 2.2,119 C-0.9,123.3 0.1,129.3 4.4,132.4 L56.3,169.5 C60.6,172.6 66.6,171.6 69.7,167.3 C72.8,163 71.8,157 67.5,153.9 L15.6,116.8 L15.6,116.8 Z" id="Shape"></path>
                </g>
                <path d="M221,878.3 C217.7,884.1 210.4,886.1 204.7,882.9 L153.3,853.9 C147.5,850.6 145.5,843.3 148.7,837.6 L162.7,812.8 C166,807 173.3,805 179,808.2 L230.4,837.2 C236.2,840.5 238.2,847.8 235,853.5 L221,878.3 L221,878.3 Z" id="bridge_2_" stroke="#333333" stroke-width="6" fill="#2EC4B6"></path>
                <path d="M245.1,901 C205.7,905.6 259.9,989.5 270.6,988.2 C279.5,987.1 276.9,897.2 245.1,901" id="input_2_" stroke="#333333" stroke-width="6" fill="#2EC4B6"></path>
                <g id="knobs_2_" transform="translate(272.000000, 796.000000)" stroke="#333333" stroke-width="6" fill="#2EC4B6">
                    <ellipse id="Oval" cx="11.9" cy="12" rx="11.6" ry="11.6"></ellipse>
                    <path d="M36.8,58.4 C33.8,64.1 26.8,66.2 21.1,63.2 C15.4,60.2 13.3,53.2 16.3,47.5 C19.3,41.8 26.3,39.7 32,42.7 C37.7,45.7 39.8,52.7 36.8,58.4 L36.8,58.4 Z" id="Shape"></path>
                    <ellipse id="Oval" cx="37.3" cy="94.3" rx="11.6" ry="11.6"></ellipse>
                </g>
                <g id="tuners_2_" transform="translate(547.000000, 4.000000)" stroke="#333333" stroke-width="6" fill="#2EC4B6">
                    <ellipse id="Oval" cx="10.7" cy="106.4" rx="10.5" ry="10.5"></ellipse>
                    <ellipse id="Oval" cx="115.3" cy="10.5" rx="10.5" ry="10.5"></ellipse>
                    <ellipse id="Oval" cx="31.6" cy="87.2" rx="10.5" ry="10.5"></ellipse>
                    <ellipse id="Oval" cx="52.6" cy="68" rx="10.5" ry="10.5"></ellipse>
                    <ellipse id="Oval" cx="73.5" cy="48.8" rx="10.5" ry="10.5"></ellipse>
                    <ellipse id="Oval" cx="94.4" cy="29.7" rx="10.5" ry="10.5"></ellipse>
                </g>
                <path d="M295.4,661.9 C327,679.5 326.4,671.1 326.4,671.1 L593,190.2 L568.9,176.6 L568,176.1 L543.9,162.5 L269.5,639.6 C269.5,639.6 263.2,643.5 294.6,661.4 L294.6,661.4 C294.8,661.5 294.9,661.6 295.1,661.6" id="neck_2_" stroke="#333333" stroke-width="9.6863" fill="#FFD192"></path>
                <g id="head-stock_2_" transform="translate(536.000000, -0.000000)">
                    <g id="head_5_" transform="translate(5.000000, 5.000000)">
                        <path d="M29.8,165.9 L10.7,155.1 C11.8,150.9 11.4,145.4 7.3,139.1 C4,134.1 11.8,124.2 21.3,117.1 C21.5,117 21.6,116.9 21.8,116.7 L138.6,9.2 C142,7.3 145.7,6.4 149.7,6.4 C157.4,6.4 165.2,10.1 170.1,16 C173,19.5 176.1,25.4 174.5,33.3 C173.3,39.1 168.8,45.9 163.2,50.2 C159.9,52.7 155.6,54.1 151.1,55.6 C146.8,57 142.3,58.5 138.1,61 C119.6,72.1 114.4,95.1 109.8,115.3 C108,123.1 106.4,130.4 104.1,136.6 C101.6,143.3 97,145.5 88.5,149 C85.8,150.1 83.1,151.2 80.2,152.7 C63.8,161 54.5,171.2 50,177.3 L29.8,165.9 L29.8,165.9 Z" id="Shape" fill="#E71D36"></path>
                        <path d="M149.7,12.4 C155.7,12.4 161.7,15.2 165.5,19.8 C167.6,22.3 169.8,26.5 168.7,32.1 C167.8,36.5 164,42 159.6,45.4 C157.1,47.3 153.3,48.5 149.3,49.8 C144.9,51.2 139.9,52.9 135.1,55.7 C114.4,68.2 108.9,92.4 104.1,113.8 C102.4,121.4 100.8,128.6 98.6,134.4 C97.1,138.5 94.8,139.8 86.4,143.3 C83.7,144.4 80.7,145.6 77.7,147.2 C63.5,154.3 54.3,162.8 48.7,169.4 L33,160.6 L17.5,151.8 C17.7,147.5 16.7,142.1 12.8,136.1 C13,134.5 15.4,129.1 25.1,121.8 C25.4,121.6 25.7,121.3 26,121 L142.2,14.1 C144.4,13 147,12.4 149.7,12.4 L149.7,12.4 Z M149.7,0.4 C144.7,0.4 139.7,1.6 135.1,4.3 L17.8,112.2 C3.3,123.1 -2.6,134.7 2.4,142.3 C8.7,151.9 2.9,157.4 2.9,157.4 L27,171.1 L52.1,185.1 C52.1,185.1 59.9,169.5 83,157.9 C94.2,152.3 105.2,151.1 109.8,138.6 C118.2,115.9 118.3,79.9 141.2,66.1 C149.2,61.3 159.4,60.6 166.8,55 C173,50.2 178.8,42.3 180.4,34.5 C184.2,15.5 167.2,0.4 149.7,0.4 L149.7,0.4 L149.7,0.4 Z" id="Shape" fill="#EC4A5E"></path>
                    </g>
                    <path d="M29.7,180 L29.7,180 L5.6,166.3 C4.3,165.6 3.4,164.3 3.2,162.9 C3.1,161.4 1.6,164.3 2.8,162 C3.4,160.9 7.3,155.5 3.5,149.8 C-3,140 3.3,126.2 19.8,113.8 L137,6.1 C137.2,5.9 137.5,5.7 137.8,5.5 C148.3,-0.6 161.7,-0.5 172.9,5.8 C185.9,13.1 192.6,26.7 189.8,40.4 C188.1,48.7 182.1,57.7 174.5,63.5 C169.8,67.1 164.5,68.8 159.3,70.5 C155.4,71.8 151.7,73 148.5,74.9 C133.8,83.7 129.4,103.4 125,122.5 C123.2,130.6 121.4,138.3 118.9,145.1 C114.7,156.5 105.9,160.1 97.4,163.6 C94.9,164.6 92.3,165.7 89.8,166.9 C68.5,177.6 61,192 60.9,192.1 C60.3,193.2 59.4,194 58.2,194.4 C57,194.8 55.8,194.6 54.7,194 L29.7,180 L29.7,180 Z M14,160.8 L34.2,172.2 L55.5,184.1 C59.5,178.4 68.7,167.6 85.9,158.9 C88.7,157.5 91.5,156.4 94.1,155.3 C102,152.1 107.7,149.7 110.5,142.1 C112.8,135.8 114.5,128.4 116.3,120.6 C120.8,100.7 125.9,78.1 143.9,67.3 C147.9,64.9 152.3,63.4 156.5,62.1 C161.2,60.6 165.6,59.1 169.1,56.5 C175,52 179.7,44.9 181,38.7 C183.4,26.8 176.1,18 168.5,13.7 C160.2,9 150.4,8.8 142.8,13.1 L25.9,120.7 C25.8,120.8 25.7,120.9 25.6,121 C13.5,130.1 7.8,139.7 11.3,145 C15.3,151.3 15.3,156.9 14,160.8 L14,160.8 Z" id="Shape" fill="#333333"></path>
                    <path d="M36.8,125 L13.7,165.9" id="Shape" stroke="#333333" stroke-width="3"></path>
                    <path d="M140,28.8 L51,186.9" id="Shape" stroke="#333333" stroke-width="3"></path>
                    <path d="M57.4,105.8 L21.2,170.1" id="Shape" stroke="#333333" stroke-width="3"></path>
                    <path d="M78.1,86.5 L28.6,174.3" id="Shape" stroke="#333333" stroke-width="3"></path>
                    <path d="M98.7,67.3 L36.1,178.5" id="Shape" stroke="#333333" stroke-width="3"></path>
                    <path d="M119.4,48 L43.5,182.7" id="Shape" stroke="#333333" stroke-width="3"></path>
                </g>
                <g id="frets_2_" transform="translate(279.000000, 185.000000)" stroke="#333333" stroke-width="3" fill="#2EC4B6">
                    <path d="M294.6,25.5 C296.2,26.4 296.7,28.4 295.8,29.9 C294.9,31.5 292.9,32 291.4,31.1 L254.2,10.1 C252.6,9.2 252.1,7.2 253,5.7 C253.9,4.1 255.9,3.6 257.4,4.5 L294.6,25.5 L294.6,25.5 Z" id="Shape"></path>
                    <path d="M43,472.1 C44.6,473 45.1,475 44.2,476.5 C43.3,478.1 41.3,478.6 39.8,477.7 L2.6,456.7 C1,455.8 0.5,453.8 1.4,452.3 C2.3,450.7 4.3,450.2 5.8,451.1 L43,472.1 L43,472.1 Z" id="Shape"></path>
                    <path d="M279.8,51.9 C281.4,52.8 281.9,54.8 281,56.3 C280.1,57.8 278.1,58.4 276.6,57.5 L239.4,36.5 C237.8,35.6 237.3,33.6 238.2,32.1 C239.1,30.5 241.1,30 242.6,30.9 L279.8,51.9 L279.8,51.9 Z" id="Shape"></path>
                    <path d="M264.9,78.3 C266.5,79.2 267,81.2 266.1,82.7 C265.2,84.3 263.2,84.8 261.7,83.9 L224.5,62.9 C222.9,62 222.4,60 223.3,58.5 C224.2,57 226.2,56.4 227.7,57.3 L264.9,78.3 L264.9,78.3 Z" id="Shape"></path>
                    <path d="M250.1,104.7 C251.7,105.6 252.2,107.6 251.3,109.1 C250.4,110.7 248.4,111.2 246.9,110.3 L209.7,89.3 C208.1,88.4 207.6,86.4 208.5,84.9 C209.4,83.4 211.4,82.8 212.9,83.7 L250.1,104.7 L250.1,104.7 Z" id="Shape"></path>
                    <path d="M235.2,131 C236.8,131.9 237.3,133.9 236.4,135.4 C235.5,136.9 233.5,137.5 232,136.6 L194.8,115.6 C193.2,114.7 192.7,112.7 193.6,111.2 C194.5,109.6 196.5,109.1 198,110 L235.2,131 L235.2,131 Z" id="Shape"></path>
                    <path d="M220.3,157.4 C221.9,158.3 222.4,160.3 221.5,161.8 C220.6,163.4 218.6,163.9 217.1,163 L179.9,142 C178.3,141.1 177.8,139.1 178.7,137.6 C179.6,136 181.6,135.5 183.1,136.4 L220.3,157.4 L220.3,157.4 Z" id="Shape"></path>
                    <path d="M205.5,183.8 C207.1,184.7 207.6,186.7 206.7,188.2 C205.8,189.8 203.8,190.3 202.3,189.4 L165.1,168.4 C163.5,167.5 163,165.5 163.9,164 C164.8,162.4 166.8,161.9 168.3,162.8 L205.5,183.8 L205.5,183.8 Z" id="Shape"></path>
                    <path d="M190.6,210.2 C192.2,211.1 192.7,213.1 191.8,214.6 C190.9,216.2 188.9,216.7 187.4,215.8 L150.2,194.8 C148.6,193.9 148.1,191.9 149,190.4 C149.9,188.8 151.9,188.3 153.4,189.2 L190.6,210.2 L190.6,210.2 Z" id="Shape"></path>
                    <path d="M175.8,236.5 C177.4,237.4 177.9,239.4 177,240.9 C176.1,242.5 174.1,243 172.6,242.1 L135.4,221.1 C133.8,220.2 133.3,218.2 134.2,216.7 C135.1,215.2 137.1,214.6 138.6,215.5 L175.8,236.5 L175.8,236.5 Z" id="Shape"></path>
                    <path d="M160.9,262.9 C162.5,263.8 163,265.8 162.1,267.3 C161.2,268.9 159.2,269.4 157.7,268.5 L120.5,247.5 C118.9,246.6 118.4,244.6 119.3,243.1 C120.2,241.5 122.2,241 123.7,241.9 L160.9,262.9 L160.9,262.9 Z" id="Shape"></path>
                    <path d="M146,289.3 C147.6,290.2 148.1,292.2 147.2,293.7 C146.3,295.3 144.3,295.8 142.8,294.9 L105.6,273.9 C104,273 103.5,271 104.4,269.5 C105.3,267.9 107.3,267.4 108.8,268.3 L146,289.3 L146,289.3 Z" id="Shape"></path>
                    <path d="M131.2,315.7 C132.8,316.6 133.3,318.6 132.4,320.1 C131.5,321.6 129.5,322.2 128,321.3 L90.8,300.3 C89.2,299.4 88.7,297.4 89.6,295.9 C90.5,294.4 92.5,293.8 94,294.7 L131.2,315.7 L131.2,315.7 Z" id="Shape"></path>
                    <path d="M116.7,342.3 C118.3,343.2 118.8,345.2 117.9,346.7 C117,348.3 115,348.8 113.5,347.9 L76.3,326.9 C74.7,326 74.2,324 75.1,322.5 C76,320.9 78,320.4 79.5,321.3 L116.7,342.3 L116.7,342.3 Z" id="Shape"></path>
                    <path d="M104.5,363.9 C106.1,364.8 106.6,366.8 105.7,368.3 C104.8,369.9 102.8,370.4 101.3,369.5 L64.1,348.5 C62.5,347.6 62,345.6 62.9,344.1 C63.8,342.5 65.8,342 67.3,342.9 L104.5,363.9 L104.5,363.9 Z" id="Shape"></path>
                    <path d="M92.3,385.6 C93.9,386.5 94.4,388.5 93.5,390 C92.6,391.6 90.6,392.1 89.1,391.2 L51.9,370.2 C50.3,369.3 49.8,367.3 50.7,365.8 C51.6,364.2 53.6,363.7 55.1,364.6 L92.3,385.6 L92.3,385.6 Z" id="Shape"></path>
                    <path d="M79.7,407.1 C81.3,408 81.8,410 80.9,411.5 C80,413.1 78,413.6 76.5,412.7 L39.3,391.7 C37.7,390.8 37.2,388.8 38.1,387.3 C39,385.7 41,385.2 42.5,386.1 L79.7,407.1 L79.7,407.1 Z" id="Shape"></path>
                    <path d="M67.5,428.7 C69.1,429.6 69.6,431.6 68.7,433.1 C67.8,434.6 65.8,435.2 64.3,434.3 L27.1,413.3 C25.5,412.4 25,410.4 25.9,408.9 C26.8,407.3 28.8,406.8 30.3,407.7 L67.5,428.7 L67.5,428.7 Z" id="Shape"></path>
                    <path d="M55.3,450.4 C56.9,451.3 57.4,453.3 56.5,454.8 C55.6,456.4 53.6,456.9 52.1,456 L14.9,435 C13.3,434.1 12.8,432.1 13.7,430.6 C14.6,429 16.6,428.5 18.1,429.4 L55.3,450.4 L55.3,450.4 Z" id="Shape"></path>
                    <ellipse id="Oval" cx="281.4" cy="4.4" rx="4.2" ry="4.2"></ellipse>
                    <ellipse id="Oval" cx="28.5" cy="453.4" rx="4.2" ry="4.2"></ellipse>
                    <ellipse id="Oval" cx="251.7" cy="57.2" rx="4.2" ry="4.2"></ellipse>
                    <ellipse id="Oval" cx="222" cy="110" rx="4.2" ry="4.2"></ellipse>
                    <ellipse id="Oval" cx="192.3" cy="162.7" rx="4.2" ry="4.2"></ellipse>
                    <ellipse id="Oval" cx="162.5" cy="215.5" rx="4.2" ry="4.2"></ellipse>
                    <ellipse id="Oval" cx="132.8" cy="268.2" rx="4.2" ry="4.2"></ellipse>
                    <ellipse id="Oval" cx="77.8" cy="366.9" rx="4.2" ry="4.2"></ellipse>
                    <ellipse id="Oval" cx="52.9" cy="410" rx="4.2" ry="4.2"></ellipse>
                    <g id="Group" transform="translate(91.000000, 312.000000)">
                        <ellipse id="Oval" cx="4.8" cy="4.9" rx="4.2" ry="4.2"></ellipse>
                        <ellipse id="Oval" cx="20.2" cy="13.5" rx="4.2" ry="4.2"></ellipse>
                    </g>
                </g>
                <g id="pegs_2_" transform="translate(568.000000, 24.000000)" stroke="#333333" stroke-width="3" fill="#2EC4B6">
                    <ellipse id="Oval" cx="4.6" cy="101.4" rx="4.2" ry="4.2"></ellipse>
                    <ellipse id="Oval" cx="108" cy="4.8" rx="4.2" ry="4.2"></ellipse>
                    <ellipse id="Oval" cx="25.3" cy="82" rx="4.2" ry="4.2"></ellipse>
                    <ellipse id="Oval" cx="45.9" cy="62.7" rx="4.2" ry="4.2"></ellipse>
                    <ellipse id="Oval" cx="66.6" cy="43.4" rx="4.2" ry="4.2"></ellipse>
                    <ellipse id="Oval" cx="87.3" cy="24.1" rx="4.2" ry="4.2"></ellipse>
                </g>
                <path d="M171.2,836.4 C167.9,834.6 163.8,835.7 162,839 C160.2,842.3 161.3,846.4 164.6,848.2 L203.8,870.3 C207.1,872.1 211.2,871 213,867.7 C214.8,864.4 213.7,860.3 210.4,858.5 L171.2,836.4 L171.2,836.4 Z" id="bridge-top_2_" stroke="#333333" stroke-width="6" fill="#2EC4B6"></path>
                <g id="switch_2_" transform="translate(315.000000, 788.000000)" stroke="#333333" stroke-width="3">
                    <path d="M1.6,35.9 L7.8,0.8" id="Shape"></path>
                    <path d="M7.4,21.6 C5.6,23.1 3,22.9 1.5,21.1 C8.54094573e-13,19.3 0.2,16.7 2,15.2 C3.8,13.7 6.4,13.9 7.9,15.7 C9.4,17.4 9.2,20.1 7.4,21.6 L7.4,21.6 Z" id="Shape" fill="#2EC4B6"></path>
                </g>
                <g id="screws_2_" transform="translate(151.000000, 610.000000)" fill="#333333">
                    <path d="M162.1,325.2 C161.1,324.7 159.9,325 159.4,326 C158.9,327 159.2,328.2 160.2,328.7 C161.2,329.2 162.4,328.9 162.9,327.9 C163.4,327 163.1,325.7 162.1,325.2 L162.1,325.2 Z" id="Shape"></path>
                    <ellipse id="Oval" cx="268.8" cy="91" rx="2" ry="2"></ellipse>
                    <ellipse id="Oval" cx="117.7" cy="2.2" rx="2" ry="2"></ellipse>
                    <ellipse id="Oval" cx="211.1" cy="100.2" rx="2" ry="2"></ellipse>
                    <ellipse id="Oval" cx="75.1" cy="78.1" rx="2" ry="2"></ellipse>
                    <ellipse id="Oval" cx="20.3" cy="128.9" rx="2" ry="2"></ellipse>
                    <ellipse id="Oval" cx="2" cy="183.5" rx="2" ry="2"></ellipse>
                    <ellipse id="Oval" cx="120.4" cy="254.2" rx="2" ry="2"></ellipse>
                    <path d="M196.1,161.8 C195.1,161.3 193.9,161.6 193.4,162.6 C192.9,163.6 193.2,164.8 194.2,165.3 C195.2,165.8 196.4,165.5 196.9,164.5 C197.4,163.6 197.1,162.4 196.1,161.8 L196.1,161.8 Z" id="Shape"></path>
                    <ellipse id="Oval" cx="116.6" cy="367.8" rx="2" ry="2"></ellipse>
                    <path d="M94.4,297.5 C93.4,297 92.2,297.3 91.7,298.3 C91.2,299.3 91.5,300.5 92.5,301 C93.5,301.5 94.7,301.2 95.2,300.2 C95.7,299.3 95.4,298.1 94.4,297.5 L94.4,297.5 Z" id="Shape"></path>
                    <ellipse id="Oval" cx="20.8" cy="206.3" rx="2" ry="2"></ellipse>
                    <ellipse id="Oval" cx="75.5" cy="237.1" rx="2" ry="2"></ellipse>
                </g>
                <g id="strings" transform="translate(171.000000, 166.000000)">
                    <path d="M378.5,0.3 L61.1,563.6 L0.7,670.8" id="stringStraight_11_" stroke="#333333" stroke-width="3"></path>
                    <path d="M385.9,4.5 L68.6,567.8 L8.2,675" id="stringStraight_10_" stroke="#333333" stroke-width="3"></path>
                    <path d="M393.4,8.7 L76,572 L15.6,679.2" id="stringStraight_9_" stroke="#333333" stroke-width="3"></path>
                    <path d="M400.8,12.9 L83.5,576.2 L23.1,683.4" id="stringStraight_8_" stroke="#333333" stroke-width="3"></path>
                    <path d="M408.3,17.1 L90.9,580.4 L30.5,687.6" id="stringStraight_7_" stroke="#333333" stroke-width="3"></path>
                    <path d="M415.7,21.3 L98.4,584.6 L38,691.7" id="stringStraight_6_" stroke="#333333" stroke-width="3"></path>
                    <path d="M378.5,0.3 L64.8,565.8 L0.7,670.8" id="stringPlucked_11_"></path>
                    <path d="M385.9,4.5 L72.3,570 L8.2,675" id="stringPlucked_10_"></path>
                    <path d="M393.4,8.7 L79.7,574.2 L15.6,679.2" id="stringPlucked_9_"></path>
                    <path d="M400.8,12.9 L87.2,578.4 L23.1,683.4" id="stringPlucked_8_"></path>
                    <path d="M408.3,17.1 L94.6,582.6 L30.5,687.6" id="stringPlucked_7_"></path>
                    <path d="M415.7,21.3 L102,586.8 L38,691.7" id="stringPlucked_6_"></path>
                </g>
            </g>
        </g>
    </g>
</svg>