<?xml version="1.0" encoding="UTF-8" standalone="no"?>
<svg width="1417px" height="759px" viewBox="0 0 1417 759" version="1.1" xmlns="http://www.w3.org/2000/svg" xmlns:xlink="http://www.w3.org/1999/xlink">
    <!-- Generator: Sketch 3.6.1 (26313) - http://www.bohemiancoding.com/sketch -->
    <title>Bass-small</title>
    <desc>Created with Sketch.</desc>
    <defs></defs>
    <g id="Page-1" stroke="none" stroke-width="1" fill="none" fill-rule="evenodd">
        <g id="Bass-small">
            <g id="Bass_Guitar_1_" transform="translate(709.000000, 287.500000) rotate(-315.000000) translate(-709.000000, -287.500000) translate(348.000000, -302.000000)">
                <g id="Group" transform="translate(0.000000, 698.000000)">
                    <g transform="translate(0.000000, 0.000000)">
                        <path d="M411.9,9.5 C411.9,9.5 396.3,62.2 430.5,77.5 C453.1,87.6 479.1,66.4 507.1,56.4 C523.6,50.5 567,67.6 548.2,109.7 C542.1,123.4 543.1,124.1 512.4,159.9 C481.1,196.3 450.2,226.4 441.6,238.8 C432.9,251.2 397.6,289.1 399,369 C400.4,449 397.3,456.6 365.5,467.1 C345,473.9 227.6,482.7 187.4,479.3 C144.5,475.7 57,466.3 21,435.2 C-15.1,404.1 7.2,374.8 16,363.9 C35.1,340.3 37.3,345.4 116.2,273.8 C126.4,264.6 143.5,247 154,233.9 C164.5,220.8 182.8,191.8 184.6,159.2 C186.4,126.6 184.1,85.6 194.2,60.1 C204.3,34.6 230,23.8 242.5,23.9 C253.8,24 298.1,25.3 311.2,25.2 C324.3,25.1 342.5,18 350.4,0.3 L411.9,9.5 L411.9,9.5 Z" id="Shape" fill="#7C7C7C"></path>
                        <g transform="translate(10.000000, 10.000000)" id="Shape">
                            <path d="M200.2,457 C191.3,457 184,456.6 178.5,456.1 C116.9,451 72.6,442 43,429 C33.3,424.7 25.5,420 19.8,415.1 C8,404.9 3.2,394.9 5,384.4 C6.7,374.7 13.6,366.2 16.5,362.6 C25.8,351.1 30.5,347.2 44.6,335.5 C57.8,324.5 77.8,307.9 115.3,274 C126.1,264.2 143.7,246.1 154.6,232.5 C161.9,223.4 185.9,190.6 188.1,150.1 C188.6,141.8 188.7,133.3 188.9,124.3 L188.9,124 C189.5,98.5 190,72.3 196.7,55.5 C204.4,36.2 223.9,28.1 232.2,28.1 L232.3,28.1 C235.9,28.1 243,28.1 251.3,28.3 L257.8,28.3 C273.7,28.7 291.8,29.1 300.3,29.1 L301.3,29.1 C315.2,29 335.2,22.7 347.6,5.4 L386,11.1 C385.2,17.2 384.8,23 384.9,28.5 C385.5,53.8 396.2,72.2 415,80.5 L415.2,80.6 C420.8,83.1 426.8,84.3 433.1,84.3 C448.6,84.3 463.8,77 478.5,69.8 L482.3,68 C488.8,64.9 495.4,61.6 501.8,59.3 C502,59.2 502.9,59 504.7,59 C508.1,59 512.1,59.9 515.7,61.5 C519.3,63.1 525.7,66.8 528.4,73.6 C530.6,79.2 529.8,86.2 526.1,94.5 C525.6,95.6 525.1,96.7 524.7,97.7 C520.4,107.4 519.3,110.1 492.4,141.4 C477.2,159.1 461.9,175.5 449.6,188.6 C435.7,203.5 425.7,214.2 420.7,221.3 C420,222.3 419,223.6 417.9,225.1 L417.8,225.2 C411.4,233.7 400.6,247.9 391.5,270 C380.5,296.6 375.2,326.7 375.8,359.5 C376.5,396.6 376.1,418.8 372.2,429.9 C369.8,436.7 366.8,439.6 351.5,444.7 C335.3,449.8 249.2,457 200.2,457 L200.2,457 L200.2,457 Z" fill="#5C5C5C"></path>
                            <path d="M349.5,10 L380.9,14.7 C380.4,19.5 380.2,24.1 380.3,28.4 C381,55.5 392.6,75.4 413.1,84.4 L413.3,84.5 C419.5,87.2 426.1,88.6 433,88.6 C449.6,88.6 465.2,81 480.4,73.7 L481,73.4 C482,72.9 483.1,72.4 484.2,71.9 C490.5,68.8 497.1,65.6 503.2,63.5 C503.3,63.5 503.8,63.4 504.6,63.4 C507.3,63.4 510.8,64.2 513.8,65.5 C516.8,66.8 522,69.8 524.1,75.1 C525.8,79.6 525.1,85.4 521.9,92.5 C521.4,93.7 520.9,94.7 520.5,95.7 C516.4,105 515.4,107.4 488.9,138.3 C473.8,155.9 458.5,172.3 446.2,185.4 L446.1,185.5 C432.1,200.5 422,211.3 416.9,218.7 C416.3,219.6 415.3,220.9 414.2,222.4 L414.1,222.5 C407.5,231.2 396.6,245.6 387.2,268.3 C375.9,295.4 370.5,326.2 371.1,359.6 C371.8,396.2 371.4,418 367.8,428.5 C366.3,432.9 365.5,435.2 350,440.3 C335.9,444.9 251.7,452.4 200.3,452.4 C191.5,452.4 184.3,452.2 178.9,451.7 C117.8,446.6 74,437.9 44.8,425.1 C35.5,421 28.1,416.6 22.7,411.9 C8.7,399.8 8.4,391 9.4,385.4 C10.9,376.9 17.2,369 20,365.6 C29,354.5 33.3,350.9 47.5,339.1 C60.8,328.1 80.8,311.5 118.3,277.4 C129.2,267.5 147,249.1 158.1,235.4 C165.6,226.1 190.3,192.3 192.6,150.4 C193.1,142 193.2,133.5 193.4,124.4 L193.4,124.1 C193.9,99 194.5,73 200.9,57 C204.8,47.3 211.7,41.3 216.9,37.9 C223.5,33.7 229.7,32.1 232.2,32.1 L232.3,32.1 C235.9,32.1 243,32.3 251.2,32.5 L255,32.6 L257.7,32.5 C273.7,32.9 291.8,33.1 300.4,33.1 L301.4,33.1 C310.7,33.1 320.6,30.8 329.2,26.5 C337.1,22.3 344.1,16.9 349.5,10 L349.5,10 Z M345.3,0.3 C334.9,16.8 316.3,24.3 301.2,24.4 L300.3,24.4 C291.4,24.4 271.4,23.9 255.2,23.5 C245.2,23.3 236.6,23 232.4,23 L232.2,23 C222.8,23 201,32.1 192.5,53.5 C185.5,71.1 184.9,97.9 184.4,123.8 C184.2,132.9 184,141.4 183.6,149.7 C181.5,188.9 158.2,220.7 151.1,229.6 C140.4,243 122.9,260.9 112.3,270.6 C75,304.5 55,321 41.8,332 C27.4,343.9 22.6,347.9 13,359.7 C9.8,363.6 2.4,372.8 0.6,383.6 C-1.5,395.8 3.9,407.2 16.9,418.5 C23,423.7 31.2,428.6 41.3,433.1 C71.3,446.3 116.1,455.3 178.2,460.4 C184,460.9 191.6,461.1 200.3,461.1 C249.9,461.1 336.6,453.9 352.8,448.6 C368.7,443.4 373.3,440 376.3,431.2 C380.4,419.4 380.8,397.7 380.1,359.2 C379.5,327 384.7,297.5 395.5,271.5 C404.4,250 415,236 421.3,227.7 C422.5,226.1 423.6,224.7 424.3,223.6 C429.1,216.8 439,206.1 452.8,191.4 C465.1,178.2 480.5,161.7 495.7,144 C523.1,112.2 524.3,109.4 528.8,99.2 C529.2,98.2 529.7,97.2 530.2,96 C534.4,86.7 535.2,78.5 532.6,71.7 C529.4,63.4 521.8,59 517.5,57.1 C512.9,55.1 508.2,54.2 504.7,54.2 C502.9,54.2 501.4,54.4 500.3,54.8 C492.6,57.5 484.7,61.5 477.2,65.2 C462.7,72.2 447.8,79.5 433.1,79.5 C427.7,79.5 422.3,78.5 417,76.2 L416.8,76.1 C399.4,68.4 390,51.6 389.4,28.1 C389.2,20.2 390.1,12.6 391.1,7 L345.3,0.3 L345.3,0.3 L345.3,0.3 Z" fill="#7C7C7C"></path>
                        </g>
                        <g transform="translate(290.000000, 72.000000)">
                            <g transform="translate(0.000000, 0.000000)" id="Shape">
                                <path d="M113.9,13.1 C118.9,18.4 124.8,22.6 131.7,25.6 L131.9,25.7 C137.5,28.2 144.5,29.8 150.9,30.2 C151.7,30.2 152.6,30.3 153.5,30.3 C163.9,30.3 174.2,26.9 182.8,23.6 C189.4,21.1 195.6,17.9 201.7,14.8 C205.5,12.9 209.5,10.8 213.4,9.1 C219,6.6 223.6,5.3 227.5,5.3 C232.2,5.3 235.7,7.1 238.7,10.8 C247.5,21.9 235.8,37.3 224.1,50.8 L223.3,51.7 C222.7,52.4 221.4,54 219.4,56.4 C121.1,175.5 44.9,246.7 7.7,254.7 L113.9,13.1 L113.9,13.1 Z" fill="#FDFFFD"></path>
                                <path d="M227.4,9.7 C230.7,9.7 233,10.8 235.1,13.5 C237.1,16 238.8,19.9 234.8,28.2 C231.4,35.3 225.2,42.5 220.6,47.8 L219.8,48.7 C219.2,49.4 217.9,51 215.8,53.5 C202.4,69.7 161.7,119.1 116.7,165.1 C63.9,219.1 33.2,239.9 15.7,247.3 L115.4,20.8 C119.7,24.4 124.5,27.4 129.8,29.7 L130,29.8 C136.1,32.5 143.6,34.2 150.6,34.6 C151.5,34.7 152.5,34.7 153.4,34.7 C164.5,34.7 175.3,31.2 184.4,27.7 C191.2,25.1 197.6,21.9 203.7,18.7 C207.6,16.7 211.4,14.8 215.2,13 C220.2,10.8 224.2,9.7 227.4,9.7 L227.4,9.7 L227.4,9.7 Z M227.4,0.7 C222.2,0.7 216.7,2.5 211.5,4.9 C201.3,9.5 191.7,15.3 181.2,19.3 C172.5,22.6 162.9,25.7 153.5,25.7 C152.7,25.7 152,25.7 151.2,25.6 C145.5,25.3 139,23.8 133.8,21.5 L133.6,21.4 C125.1,17.6 118.1,11.9 112.9,4.5 L0.6,259.8 L1.3,259.8 C61.6,259.8 218.6,64 226.8,54.5 C236.5,43.3 254.5,23.2 242.3,7.8 C237.9,2.7 232.8,0.7 227.4,0.7 L227.4,0.7 L227.4,0.7 Z" fill="#333333"></path>
                            </g>
                            <path d="M227.4,18.7 L227.7,18.7 C227.8,18.8 227.9,18.9 228,19.1 C228.1,19.2 228.2,19.3 228.2,19.3 C228.2,19.5 228.3,20.9 226.7,24.2 C225.5,26.6 221.7,32.4 210,46.4 C209.5,47 209.1,47.4 208.9,47.7 C207.8,49.1 206.5,50.6 205,52.4 C189.1,71.8 151.8,117.2 110.7,159.2 C78.3,192.3 57.5,209.8 41.7,221 L123,36.3 C132,41.2 142,43.7 152.8,43.7 C167.8,43.7 180.6,38.8 186.8,36.4 L187.6,36.1 C194.5,33.5 200.8,30.2 206.9,27.1 L207.8,26.6 L208.7,26.1 C212.2,24.3 215.6,22.6 219,21 C224,19 226.6,18.7 227.4,18.7 L227.4,18.7 Z M227.4,9.7 C224.2,9.7 220.1,10.8 215.1,13.1 C211.3,14.8 207.5,16.8 203.6,18.8 C197.5,21.9 191.1,25.2 184.3,27.8 C178.7,30 166.7,34.8 152.7,34.8 C142,34.8 130.1,32 119,22.9 L21.5,244.4 C41.5,232.8 64.6,219.1 117,165.6 C162.1,119.5 202.3,69.8 215.7,53.5 C217.8,51 231.3,35.3 234.7,28.2 C238.7,19.9 236.9,16 235,13.5 C233.8,12 232.6,11 231.3,10.4 C230.2,10 228.9,9.7 227.4,9.7 L227.4,9.7 L227.4,9.7 Z" id="Shape" fill="#F8FDFD"></path>
                            <path d="M227.4,9.7 C230.7,9.7 233,10.8 235.1,13.5 C237.1,16 238.8,19.9 234.8,28.2 C231.4,35.3 225.2,42.5 220.6,47.8 L219.8,48.7 C219.2,49.4 217.9,51 215.8,53.5 C202.4,69.7 161.7,119.1 116.7,165.1 C63.9,219.1 33.2,239.9 15.7,247.3 L115.4,20.8 C119.7,24.4 124.5,27.4 129.8,29.7 L130,29.8 C136.1,32.5 143.6,34.2 150.6,34.6 C151.5,34.7 152.5,34.7 153.4,34.7 C164.5,34.7 175.3,31.2 184.4,27.7 C191.2,25.1 197.6,21.9 203.7,18.7 C207.6,16.7 211.4,14.8 215.2,13 C220.2,10.8 224.2,9.7 227.4,9.7 L227.4,9.7 L227.4,9.7 Z M227.4,0.7 C222.2,0.7 216.7,2.5 211.5,4.9 C201.3,9.5 191.7,15.3 181.2,19.3 C172.5,22.6 162.9,25.7 153.5,25.7 C152.7,25.7 152,25.7 151.2,25.6 C145.5,25.3 139,23.8 133.8,21.5 L133.6,21.4 C125.1,17.6 118.1,11.9 112.9,4.5 L0.6,259.8 L1.3,259.8 C61.6,259.8 218.6,64 226.8,54.5 C236.5,43.3 254.5,23.2 242.3,7.8 C237.9,2.7 232.8,0.7 227.4,0.7 L227.4,0.7 L227.4,0.7 Z" id="Shape" fill="#333333"></path>
                            <g transform="translate(35.000000, 14.000000)" fill="#333333">
                                <circle id="Oval" cx="86.7" cy="18.9" r="2"></circle>
                                <circle id="Oval" cx="2.2" cy="211.1" r="2"></circle>
                                <path d="M45.3,113.2 C44.3,112.8 43.1,113.2 42.7,114.2 C42.3,115.2 42.7,116.4 43.7,116.8 C44.7,117.2 45.9,116.8 46.3,115.8 C46.7,114.8 46.3,113.6 45.3,113.2 L45.3,113.2 Z" id="Shape"></path>
                                <path d="M196.4,0.5 C195.4,0.1 194.2,0.5 193.8,1.5 C193.4,2.5 193.8,3.7 194.8,4.1 C195.8,4.5 197,4.1 197.4,3.1 C197.9,2.1 197.4,0.9 196.4,0.5 L196.4,0.5 Z" id="Shape"></path>
                                <path d="M144.8,70.7 C143.8,70.3 142.6,70.7 142.2,71.7 C141.8,72.7 142.2,73.9 143.2,74.3 C144.2,74.7 145.4,74.3 145.8,73.3 C146.3,72.3 145.8,71.1 144.8,70.7 L144.8,70.7 Z" id="Shape"></path>
                                <path d="M76.8,145.6 C75.8,145.2 74.6,145.6 74.2,146.6 C73.8,147.6 74.2,148.8 75.2,149.2 C76.2,149.6 77.4,149.2 77.8,148.2 C78.3,147.3 77.9,146.1 76.8,145.6 L76.8,145.6 Z" id="Shape"></path>
                                <circle id="Oval" cx="146.3" cy="20" r="2"></circle>
                            </g>
                        </g>
                        <g transform="translate(113.000000, 30.000000)" id="Shape" stroke-width="9">
                            <g transform="translate(12.000000, 9.000000)" stroke="#7C7C7C" fill="#5C5C5C">
                                <path d="M185.7,2.04636308e-12 L0.9,420.1"></path>
                                <path d="M279.2,33.5 L105.6,427.9"></path>
                            </g>
                            <g transform="translate(0.000000, 0.000000)" stroke="#333333">
                                <path d="M191.5,0.8 L0.2,435.6"></path>
                                <path d="M301.8,40.6 L123.8,445.2"></path>
                            </g>
                        </g>
                        <path d="M355.3,10.1 L401,16.9 C400,22.5 399.1,30 399.3,37.9 C399.9,61.3 409.4,77.9 426.8,85.6 C431.9,87.9 437.5,89.1 443.3,89.1 C457.8,89.1 472,82.3 487,75 C494.5,71.4 502.3,67.6 510,64.9 C510.6,64.7 512,64.3 514.4,64.3 C522.9,64.3 534.4,68.9 540.2,77.7 C545.1,85.2 545,94.8 539.9,106.1 C539.4,107.2 538.9,108.3 538.5,109.3 C534,119.5 532.8,122.3 505.4,154.1 C490.2,171.8 474.8,188.3 462.5,201.5 C448.7,216.2 438.8,226.9 434,233.7 C433.3,234.8 432.2,236.2 431,237.8 C424.7,246.1 414.2,260 405.2,281.6 C394.4,307.6 389.2,337.1 389.8,369.3 C390.5,407.8 390.1,429.5 386,441.3 C383,450 378.4,453.4 362.5,458.7 C347.5,463.6 263.2,471.2 210.1,471.2 C201,471.2 193.5,471 187.9,470.5 C154.7,467.7 127,464 103.2,459 C66.8,451.3 41.1,441.1 26.6,428.6 C13.5,417.3 8.2,405.9 10.3,393.7 C12.2,382.9 19.6,373.7 22.7,369.8 C32.3,358 37.1,354 51.5,342.1 C64.7,331.1 84.7,314.6 122,280.7 C132.6,271.1 150,253.1 160.8,239.7 C167.9,230.9 191.2,199.1 193.3,159.8 C193.8,151.5 193.9,142.9 194.1,133.8 C194.7,107.9 195.2,81.1 202.2,63.5 C207,51.5 215.5,44.2 221.7,40.2 C230,34.9 237.7,33 241.9,33 L242.1,33 C246.3,33 254.9,33.1 264.9,33.3 C281,33.7 301,34 309.9,34 L310.9,34 C326.4,34 345,26.6 355.3,10.1 L355.3,10.1 Z M350.4,0.4 C342.5,18.1 324.3,25.3 311.2,25.3 L310.2,25.3 C296,25.3 253.5,24.1 242.5,23.9 L242.2,23.9 C229.5,23.9 204.2,34.8 194.1,60.1 C184,85.6 186.3,126.6 184.5,159.2 C182.7,191.8 164.5,220.8 153.9,233.9 C143.4,247 126.3,264.6 116.1,273.8 C37.2,345.4 35,340.3 15.9,363.9 C7.1,374.8 -15.2,404 20.9,435.2 C57,466.3 144.4,475.7 187.3,479.3 C193.4,479.8 201.2,480 210.3,480 C260.9,480 348.1,472.8 365.5,467 C397.3,456.5 400.4,448.9 399,368.9 C397.6,288.9 432.9,251 441.6,238.7 C450.3,226.3 481.2,196.2 512.4,159.8 C543.1,124 542.1,123.3 548.2,109.6 C564.6,72.8 533.6,55.1 514.5,55.1 C511.7,55.1 509.2,55.5 507.1,56.2 C484.3,64.3 462.8,79.9 443.4,79.9 C439,79.9 434.7,79.1 430.5,77.2 C396.2,61.9 411.9,9.2 411.9,9.2 L350.4,0.4 L350.4,0.4 L350.4,0.4 Z" id="Shape" fill="#333333"></path>
                    </g>
                    <g transform="translate(278.000000, 331.000000)" id="Shape">
                        <g transform="translate(36.000000, 0.000000)">
                            <path d="M15,26.8 C13.3,26.8 11.7,26.5 10.2,25.8 C4.2,23.1 1.6,16.1 4.2,10.2 C6.1,5.9 10.3,3.2 15,3.2 C16.7,3.2 18.3,3.5 19.8,4.2 C22.7,5.5 24.9,7.8 26,10.8 C27.1,13.8 27,17 25.8,19.8 C23.9,24.1 19.6,26.8 15,26.8 L15,26.8 Z" fill="#2EC4B6"></path>
                            <path d="M15,6.2 L15,6.2 C16.2,6.2 17.4,6.5 18.6,7 C20.8,8 22.4,9.7 23.2,11.9 C24,14.1 24,16.5 23,18.7 C21.6,21.9 18.4,23.9 14.9,23.9 C13.7,23.9 12.5,23.6 11.3,23.1 C6.9,21.1 4.9,15.9 6.8,11.4 C8.3,8.2 11.5,6.2 15,6.2 L15,6.2 Z M15,0.2 C9.3,0.2 3.9,3.5 1.5,9 C-1.8,16.5 1.5,25.2 9,28.6 C11,29.5 13,29.9 15,29.9 C20.7,29.9 26.1,26.6 28.5,21.1 C31.8,13.6 28.5,4.9 21,1.5 C19,0.6 17,0.2 15,0.2 L15,0.2 L15,0.2 Z" fill="#333333"></path>
                        </g>
                        <g transform="translate(18.000000, 40.000000)">
                            <path d="M15.2,26.7 C13.5,26.7 11.9,26.4 10.4,25.7 C4.4,23 1.8,16 4.4,10.1 C6.3,5.8 10.5,3.1 15.2,3.1 C16.9,3.1 18.5,3.4 20,4.1 C26,6.8 28.6,13.8 26,19.7 C24.1,23.9 19.8,26.7 15.2,26.7 L15.2,26.7 Z" fill="#2EC4B6"></path>
                            <path d="M15.2,6 L15.2,6 C16.4,6 17.6,6.3 18.8,6.8 C23.2,8.8 25.2,14 23.3,18.5 C21.9,21.7 18.7,23.7 15.2,23.7 C14,23.7 12.8,23.4 11.6,22.9 C7.2,20.9 5.2,15.7 7.1,11.2 C8.5,8.1 11.7,6 15.2,6 L15.2,6 Z M15.2,2.04636308e-12 C9.5,2.04636308e-12 4.1,3.3 1.7,8.8 C-1.6,16.3 1.7,25 9.2,28.4 C11.2,29.3 13.2,29.7 15.2,29.7 C20.9,29.7 26.3,26.4 28.7,20.9 C32,13.4 28.7,4.7 21.2,1.3 C19.3,0.4 17.2,2.04636308e-12 15.2,2.04636308e-12 L15.2,2.04636308e-12 L15.2,2.04636308e-12 Z" fill="#333333"></path>
                        </g>
                        <g transform="translate(0.000000, 79.000000)">
                            <path d="M15.4,27.5 C13.7,27.5 12.1,27.2 10.6,26.5 C4.6,23.8 2,16.8 4.6,10.9 C6.5,6.6 10.7,3.9 15.4,3.9 C17.1,3.9 18.7,4.2 20.2,4.9 C23.1,6.2 25.3,8.5 26.4,11.5 C27.5,14.5 27.4,17.7 26.2,20.5 C24.3,24.8 20,27.5 15.4,27.5 L15.4,27.5 Z" fill="#2EC4B6"></path>
                            <path d="M15.4,6.8 L15.4,6.8 C16.6,6.8 17.8,7.1 19,7.6 C21.2,8.6 22.8,10.3 23.6,12.5 C24.4,14.7 24.4,17.1 23.4,19.3 C22,22.5 18.8,24.5 15.3,24.5 C14.1,24.5 12.9,24.2 11.7,23.7 C7.3,21.7 5.3,16.5 7.2,12 C8.7,8.9 11.9,6.8 15.4,6.8 L15.4,6.8 Z M15.4,0.8 C9.7,0.8 4.3,4.1 1.9,9.6 C-1.4,17.1 1.9,25.8 9.4,29.2 C11.4,30.1 13.4,30.5 15.4,30.5 C21.1,30.5 26.5,27.2 28.9,21.7 C32.2,14.2 28.9,5.5 21.4,2.1 C19.5,1.3 17.4,0.8 15.4,0.8 L15.4,0.8 L15.4,0.8 Z" fill="#333333"></path>
                        </g>
                    </g>
                </g>
                <g id="Group" transform="translate(163.000000, 0.000000)">
                    <g transform="translate(0.000000, 863.000000)" id="Shape">
                        <g transform="translate(0.000000, 184.000000)">
                            <path d="M85.3,62.7 C83,67.9 77,70.2 71.8,68 L11,41.2 C5.8,38.9 3.5,32.9 5.7,27.7 L14.8,7.1 C17.1,1.9 23.1,-0.4 28.3,1.8 L89.1,28.6 C94.3,30.9 96.6,36.9 94.4,42.1 L85.3,62.7 L85.3,62.7 Z" stroke="#333333" stroke-width="9" fill="#2EC4B6"></path>
                            <path d="M85.4,49.8 L56.3,37 L55.4,36.6 L15.8,19.2 C10.2,16.8 3.7,19.3 1.3,24.8 C-1.1,30.4 1.4,36.9 6.9,39.3 L46.5,56.7 L46.5,56.7 L76.5,69.9 C82.1,72.3 88.5,69.8 91,64.3 C93.5,58.8 90.9,52.3 85.4,49.8 L85.4,49.8 Z" stroke="#333333" stroke-width="9" fill="#2EC4B6"></path>
                            <g transform="translate(22.000000, 9.000000)" fill="#333333">
                                <path d="M3.7,0.5 C2.7,0.1 1.5,0.5 1.1,1.5 C0.7,2.5 1.1,3.7 2.1,4.1 C3.1,4.5 4.3,4.1 4.7,3.1 C5.2,2.2 4.7,1 3.7,0.5 L3.7,0.5 Z"></path>
                                <path d="M64.1,27.1 C63.1,26.7 61.9,27.1 61.5,28.1 C61.1,29.1 61.5,30.3 62.5,30.7 C63.5,31.1 64.7,30.7 65.1,29.7 C65.6,28.7 65.1,27.6 64.1,27.1 L64.1,27.1 Z"></path>
                            </g>
                        </g>
                        <g transform="translate(38.000000, 109.000000)">
                            <path d="M82.2,60.8 C80.3,65.2 75.2,67.1 70.8,65.2 L6,36.7 C1.6,34.8 -0.3,29.7 1.6,25.3 L10.4,5.4 C12.3,1 17.4,-0.9 21.8,1 L86.6,29.5 C91,31.4 92.9,36.5 91,40.9 L82.2,60.8 L82.2,60.8 Z" stroke="#333333" stroke-width="9" fill="#2EC4B6"></path>
                            <g transform="translate(14.000000, 17.000000)" fill="#333333">
                                <path d="M3.1,0.7 C2.1,0.3 0.9,0.7 0.5,1.7 C0.1,2.7 0.5,3.9 1.5,4.3 C2.5,4.7 3.7,4.3 4.1,3.3 C4.6,2.3 4.1,1.2 3.1,0.7 L3.1,0.7 Z"></path>
                                <path d="M63.5,27.3 C62.5,26.9 61.3,27.3 60.9,28.3 C60.5,29.3 60.9,30.5 61.9,30.9 C62.9,31.3 64.1,30.9 64.5,29.9 C65,28.9 64.5,27.7 63.5,27.3 L63.5,27.3 Z"></path>
                            </g>
                        </g>
                        <g transform="translate(86.000000, 0.000000)">
                            <path d="M82.2,60.9 C80.3,65.3 75.2,67.2 70.8,65.3 L6,36.8 C1.6,34.9 -0.3,29.8 1.6,25.4 L10.4,5.5 C12.3,1.1 17.4,-0.8 21.8,1.1 L86.6,29.6 C91,31.5 92.9,36.6 91,41 L82.2,60.9 L82.2,60.9 Z" stroke="#333333" stroke-width="9" fill="#2EC4B6"></path>
                            <g transform="translate(14.000000, 17.000000)" fill="#333333">
                                <path d="M3,0.8 C2,0.4 0.8,0.8 0.4,1.8 C1.37700962e-12,2.8 0.4,4 1.4,4.4 C2.4,4.8 3.6,4.4 4,3.4 C4.5,2.4 4,1.2 3,0.8 L3,0.8 Z"></path>
                                <path d="M63.4,27.4 C62.4,27 61.2,27.4 60.8,28.4 C60.4,29.4 60.8,30.6 61.8,31 C62.8,31.4 64,31 64.4,30 C64.9,29 64.4,27.8 63.4,27.4 L63.4,27.4 Z"></path>
                            </g>
                        </g>
                    </g>
                    <g transform="translate(393.000000, 40.000000)" id="Shape">
                        <g transform="translate(64.000000, 0.000000)">
                            <path d="M15.3,27.7 C13.6,27.7 12,27.4 10.5,26.7 C7.6,25.4 5.3,23.1 4.2,20.1 C3,17.1 3.1,13.9 4.4,10.9 C6.3,6.5 10.6,3.7 15.4,3.7 C17.1,3.7 18.7,4 20.2,4.7 C26.3,7.4 29,14.5 26.3,20.5 C24.4,24.9 20,27.7 15.3,27.7 L15.3,27.7 Z" fill="#2EC4B6"></path>
                            <path d="M15,1 L15,6.7 C17,6.7 17.6,7 18.8,7.5 C23.3,9.5 25.5,14.8 23.5,19.4 C22.1,22.7 18.9,24.8 15.3,24.8 C14.1,24.8 12.9,24.5 11.7,24 C7.2,22 5,16.7 6.9,12.1 C8.3,8.8 12,6.7 15,6.7 L15,1 L15,1 Z M15.3,0.7 C9.5,0.7 4,4 1.6,9.7 C-1.7,17.3 1.7,26.1 9.3,29.5 C11.3,30.4 13.3,30.8 15.3,30.8 C21.1,30.8 26.6,27.5 29,21.8 C32.3,14.2 28.9,5.4 21.3,2 C19.4,1.1 17.3,0.7 15.3,0.7 L15.3,0.7 L15.3,0.7 Z" fill="#333333"></path>
                        </g>
                        <g transform="translate(43.000000, 29.000000)">
                            <path d="M15,27 C13.3,27 11.7,26.7 10.2,26 C4.1,23.3 1.4,16.2 4.1,10.2 C6,5.8 10.3,3 15.1,3 C16.8,3 18.4,3.3 19.9,4 C26,6.7 28.7,13.8 26,19.8 C24.1,24.2 19.8,27 15,27 L15,27 Z" fill="#2EC4B6"></path>
                            <path d="M15.1,6 L15.1,6 C16.3,6 17.6,6.3 18.7,6.8 C23.2,8.8 25.3,14.1 23.3,18.7 C21.9,22 18.6,24.1 15.1,24.1 C13.9,24.1 12.6,23.8 11.5,23.3 C7,21.3 4.9,16 6.9,11.4 C8.3,8.1 11.5,6 15.1,6 L15.1,6 Z M15.1,1.47792889e-12 C9.3,1.47792889e-12 3.8,3.3 1.4,9 C-1.9,16.6 1.5,25.4 9.1,28.8 C11.1,29.7 13.1,30.1 15.1,30.1 C20.9,30.1 26.4,26.8 28.8,21.1 C32.1,13.5 28.7,4.7 21.1,1.3 C19.1,0.4 17.1,1.47792889e-12 15.1,1.47792889e-12 L15.1,1.47792889e-12 L15.1,1.47792889e-12 Z" fill="#333333"></path>
                        </g>
                        <g transform="translate(21.000000, 57.000000)">
                            <path d="M15.8,27.3 C14.1,27.3 12.5,27 11,26.3 C4.9,23.6 2.2,16.5 4.9,10.5 C6.8,6.1 11.1,3.3 15.9,3.3 C17.6,3.3 19.2,3.6 20.7,4.3 C26.8,7 29.5,14.1 26.8,20.1 C24.9,24.5 20.6,27.3 15.8,27.3 L15.8,27.3 Z" fill="#2EC4B6"></path>
                            <path d="M15.8,6.3 L15.8,6.3 C17,6.3 18.3,6.6 19.4,7.1 C23.9,9.1 26,14.4 24,19 C22.6,22.3 19.3,24.4 15.8,24.4 C14.6,24.4 13.3,24.1 12.2,23.6 C7.7,21.6 5.6,16.3 7.6,11.7 C9,8.4 12.3,6.3 15.8,6.3 L15.8,6.3 Z M15.8,0.3 C10,0.3 4.5,3.6 2.1,9.3 C-1.2,16.9 2.2,25.7 9.8,29.1 C11.8,30 13.8,30.4 15.8,30.4 C21.6,30.4 27.1,27.1 29.5,21.4 C32.8,13.8 29.4,5 21.8,1.6 C19.9,0.7 17.9,0.3 15.8,0.3 L15.8,0.3 L15.8,0.3 Z" fill="#333333"></path>
                        </g>
                        <g transform="translate(0.000000, 85.000000)">
                            <path d="M15.6,27.6 C13.9,27.6 12.3,27.3 10.8,26.6 C4.7,23.9 2,16.8 4.7,10.8 C6.6,6.4 10.9,3.6 15.7,3.6 C17.4,3.6 19,3.9 20.5,4.6 C26.6,7.3 29.3,14.4 26.6,20.4 C24.7,24.8 20.3,27.6 15.6,27.6 L15.6,27.6 Z" fill="#2EC4B6"></path>
                            <path d="M15.6,6.6 L15.6,6.6 C16.8,6.6 18.1,6.9 19.2,7.4 C23.7,9.4 25.8,14.7 23.8,19.3 C22.4,22.6 19.1,24.7 15.6,24.7 C14.4,24.7 13.1,24.4 12,23.9 C7.5,21.9 5.4,16.6 7.4,12 C8.8,8.7 12,6.6 15.6,6.6 L15.6,6.6 Z M15.6,0.6 C9.8,0.6 4.3,3.9 1.9,9.6 C-1.4,17.2 2,26 9.6,29.4 C11.6,30.3 13.6,30.7 15.6,30.7 C21.4,30.7 26.9,27.4 29.3,21.7 C32.6,14.1 29.2,5.3 21.6,1.9 C19.7,1 17.6,0.6 15.6,0.6 L15.6,0.6 L15.6,0.6 Z" fill="#333333"></path>
                        </g>
                    </g>
                    <g transform="translate(390.000000, 0.000000)" id="Shape">
                        <g transform="translate(0.000000, 0.000000)">
                            <path d="M57.1,235.7 C56.5,235.7 55.9,235.6 55.3,235.3 L18.2,219 C17.1,218.5 16.3,217.6 15.8,216.5 C15.3,215.4 15.4,214.1 15.9,213.1 C20.7,202.3 20.5,192 15.4,182.6 C11.6,175.6 6.4,171.7 6.3,171.6 C5.3,170.9 4.7,169.8 4.5,168.6 C4.3,167.4 4.6,166.2 5.4,165.2 L96.5,43.7 C102.5,35.1 93.3,27.8 92.2,27 C91.2,26.3 90.6,25.2 90.5,24 C90.4,22.8 90.7,21.6 91.4,20.6 C91.9,19.9 104.6,4.3 124.7,4.3 C130.3,4.3 136,5.5 141.6,8 C165.5,18.5 165,43.1 161.4,54.7 C161.4,54.8 161.3,54.9 161.3,54.9 L103.1,209.6 C102.4,211.4 100.7,212.5 98.9,212.5 C98.6,212.5 98.3,212.5 98,212.4 C98,212.4 95.8,212 92.5,212 C82.5,212 68.9,215.6 61.3,233 C60.8,234.1 59.9,234.9 58.8,235.4 C58.3,235.6 57.7,235.7 57.1,235.7 L57.1,235.7 Z" fill="#5C5C5C"></path>
                            <path d="M124.8,8.9 C129.4,8.9 134.5,9.8 139.8,12.2 C166.3,23.9 157.1,53.4 157.1,53.4 L98.9,208.1 C98.9,208.1 96.4,207.6 92.5,207.6 C83.2,207.6 66.2,210.6 57.2,231.3 L20.1,215 C33,185.6 9,168 9,168 L100.2,46.5 C109,34 95,23.5 95,23.5 C95,23.5 106.6,8.9 124.8,8.9 L124.8,8.9 Z M124.8,1.36424205e-12 L124.8,1.36424205e-12 C102.6,1.36424205e-12 88.6,17.2 88,17.9 C86.5,19.8 85.7,22.2 86.1,24.7 C86.4,27.1 87.7,29.2 89.7,30.7 C90.4,31.2 92.3,33 93.4,35.1 C94.6,37.4 94.5,39.1 93.1,41.2 L2,162.6 C0.5,164.5 -0.1,166.9 0.3,169.3 C0.7,171.7 1.9,173.8 3.9,175.2 C4.3,175.5 8.8,179.1 12,185.3 C16.1,193.3 16.2,202 12.1,211.3 C11.1,213.5 11.1,216 11.9,218.2 C12.8,220.4 14.5,222.2 16.7,223.2 L53.8,239.5 C55,240 56.2,240.3 57.4,240.3 C58.5,240.3 59.6,240.1 60.7,239.7 C62.9,238.8 64.7,237.1 65.7,234.9 C72.4,219.8 84.1,216.6 92.8,216.6 C95.4,216.6 97.1,216.9 97.4,216.9 C98.1,217 98.7,217.1 99.4,217.1 C103.1,217.1 106.4,214.8 107.7,211.2 L165.9,56.5 C166,56.3 166,56.2 166.1,56 C166.4,55.1 168.9,46.5 167.8,36.1 C166.1,21.2 157.8,10.1 143.9,3.9 C137.3,1.3 131,1.36424205e-12 124.8,1.36424205e-12 L124.8,1.36424205e-12 L124.8,1.36424205e-12 Z" fill="#333333"></path>
                        </g>
                        <g transform="translate(9.000000, 8.000000)">
                            <path d="M18.9,196.2 C21.7,177.6 11.7,164.9 6.1,159.4 C6.1,159.4 94.8,41.1 94.9,41.1 C99.5,34.5 99.8,27.1 95.8,20.1 C94.7,18.2 93.5,16.7 92.4,15.4 C96.5,11.6 104.9,5.4 115.8,5.4 C120.2,5.4 124.6,6.4 129,8.3 C138.4,12.4 143.7,19.5 144.9,29.4 C145.8,36.7 144.1,43.1 143.8,44 L86.9,195.2 C85.9,195.1 84.8,195.1 83.5,195.1 C75.6,195.1 61.4,197.2 50.8,210.2 L18.9,196.2 L18.9,196.2 Z" fill="#5C5C5C"></path>
                            <path d="M115.8,9.9 C119.5,9.9 123.4,10.8 127.2,12.4 C135,15.8 139.4,21.5 140.4,29.7 C141.2,35.9 139.8,41.7 139.6,42.8 L83.9,191 L83.5,191 C75.3,191 61,192.8 49.6,205 L23.8,193.5 C25.1,177.6 17.8,165.8 12,159.2 L98.4,44 C98.5,43.9 98.5,43.8 98.6,43.8 C105.7,33.7 103.5,23.5 98.6,16.2 C102.6,13.1 108.6,9.9 115.8,9.9 L115.8,9.9 L115.8,9.9 Z M115.8,0.9 C97.6,0.9 86,15.5 86,15.5 C86,15.5 100,26 91.2,38.5 L9.09494702e-13,160 C9.09494702e-13,160 19.6,174.4 13.8,198.8 L52.2,215.7 C61.7,201.8 75.4,199.5 83.4,199.5 C87.3,199.5 89.8,200 89.8,200 L148,45.3 C148,45.3 157.2,15.8 130.7,4.1 C125.4,1.8 120.4,0.9 115.8,0.9 L115.8,0.9 L115.8,0.9 Z" fill="#7C7C7C"></path>
                        </g>
                    </g>
                    <g transform="translate(414.000000, 68.000000)" stroke="#333333" stroke-width="4">
                        <g transform="translate(0.000000, 8.000000)" id="Shape">
                            <path d="M0.5,140.9 L24.6,85.5"></path>
                            <path d="M10.1,145.1 L45.8,57.2"></path>
                            <path d="M18.7,148.9 L67,28.9"></path>
                            <path d="M28.3,153.1 L88.3,0.6"></path>
                        </g>
                        <g transform="translate(14.000000, 0.000000)" fill="#2EC4B6">
                            <path d="M10.6,93.5 C9.4,96.3 6.1,97.5 3.4,96.3 C0.6,95.1 -0.6,91.8 0.6,89.1 C1.8,86.3 5.1,85.1 7.8,86.3 C10.5,87.5 11.8,90.7 10.6,93.5 L10.6,93.5 Z" id="Shape"></path>
                            <circle id="Oval" cx="26.8" cy="63" r="5.5"></circle>
                            <circle id="Oval" cx="48" cy="34.7" r="5.5"></circle>
                            <circle id="Oval" cx="69.2" cy="6.4" r="5.5"></circle>
                        </g>
                    </g>
                    <g transform="translate(28.000000, 205.000000)">
                        <g transform="translate(106.000000, 0.000000)" id="Shape">
                            <path d="M61.4,621.4 C60.8,621.4 60.2,621.3 59.6,621 L7.3,598.3 C6.2,597.8 5.3,596.9 4.9,595.8 C4.5,594.7 4.5,593.4 5,592.3 L272,8 C272.8,6.3 274.4,5.4 276.1,5.4 C276.7,5.4 277.3,5.5 277.9,5.8 L315,22.1 C317.3,23.1 318.3,25.7 317.3,28 L65.6,618.6 C65.1,619.7 64.2,620.6 63.1,621 C62.6,621.3 62,621.4 61.4,621.4 L61.4,621.4 Z" fill="#FFD192"></path>
                            <path d="M276.1,9.9 L313.2,26.2 L61.5,616.8 L9.2,594.1 L276.1,9.9 L276.1,9.9 Z M276.1,0.9 C272.7,0.9 269.4,2.9 267.9,6.2 L1,590.4 C1.98119299e-12,592.6 -0.1,595.1 0.8,597.4 C1.7,599.7 3.4,601.5 5.6,602.4 L57.9,625.1 C59,625.6 60.3,625.8 61.5,625.8 C62.6,625.8 63.8,625.6 64.8,625.2 C67,624.3 68.8,622.6 69.8,620.4 L321.5,29.8 C323.4,25.3 321.4,20 316.8,18 L279.7,1.7 C278.5,1.2 277.3,0.9 276.1,0.9 L276.1,0.9 L276.1,0.9 Z" fill="#333333"></path>
                        </g>
                        <g transform="translate(127.000000, 29.000000)" stroke="#333333" stroke-width="3" fill="#2EC4B6">
                            <path d="M277.6,31.2 C279.2,31.9 280,33.8 279.3,35.5 C278.6,37.1 276.7,37.9 275,37.2 L235.9,20 C234.3,19.3 233.5,17.4 234.2,15.7 C234.9,14.1 236.8,13.3 238.5,14 L277.6,31.2 L277.6,31.2 Z" id="Shape"></path>
                            <path d="M44,562 C45.6,562.7 46.4,564.6 45.7,566.3 C45,567.9 43.1,568.7 41.4,568 L2.3,550.8 C0.7,550.1 -0.1,548.2 0.6,546.5 C1.3,544.8 3.2,544.1 4.9,544.8 L44,562 L44,562 Z" id="Shape"></path>
                            <path d="M263.7,62.8 C265.3,63.5 266.1,65.4 265.4,67.1 C264.7,68.8 262.8,69.5 261.1,68.8 L222,51.6 C220.4,50.9 219.6,49 220.3,47.3 C221,45.6 222.9,44.9 224.6,45.6 L263.7,62.8 L263.7,62.8 Z" id="Shape"></path>
                            <path d="M249.8,94.5 C251.4,95.2 252.2,97.1 251.5,98.8 C250.8,100.5 248.9,101.2 247.2,100.5 L208.1,83.3 C206.5,82.6 205.7,80.7 206.4,79 C207.1,77.3 209,76.6 210.7,77.3 L249.8,94.5 L249.8,94.5 Z" id="Shape"></path>
                            <path d="M235.8,126.1 C237.4,126.8 238.2,128.7 237.5,130.4 C236.8,132.1 234.9,132.8 233.2,132.1 L194.1,114.9 C192.5,114.2 191.7,112.3 192.4,110.6 C193.1,108.9 195,108.2 196.7,108.9 L235.8,126.1 L235.8,126.1 Z" id="Shape"></path>
                            <path d="M221.9,157.8 C223.5,158.5 224.3,160.4 223.6,162.1 C222.9,163.7 221,164.5 219.3,163.8 L180.2,146.6 C178.6,145.9 177.8,144 178.5,142.3 C179.2,140.6 181.1,139.9 182.8,140.6 L221.9,157.8 L221.9,157.8 Z" id="Shape"></path>
                            <path d="M208,189.4 C209.6,190.1 210.4,192 209.7,193.7 C209,195.3 207.1,196.1 205.4,195.4 L166.3,178.2 C164.7,177.5 163.9,175.6 164.6,173.9 C165.3,172.3 167.2,171.5 168.9,172.2 L208,189.4 L208,189.4 Z" id="Shape"></path>
                            <path d="M194,221.1 C195.6,221.8 196.4,223.7 195.7,225.4 C195,227 193.1,227.8 191.4,227.1 L152.3,209.9 C150.7,209.2 149.9,207.3 150.6,205.6 C151.3,204 153.2,203.2 154.9,203.9 L194,221.1 L194,221.1 Z" id="Shape"></path>
                            <path d="M180.1,252.7 C181.7,253.4 182.5,255.3 181.8,257 C181.1,258.6 179.2,259.4 177.5,258.7 L138.4,241.5 C136.8,240.8 136,238.9 136.7,237.2 C137.4,235.6 139.3,234.8 141,235.5 L180.1,252.7 L180.1,252.7 Z" id="Shape"></path>
                            <path d="M166.2,284.4 C167.8,285.1 168.6,287 167.9,288.7 C167.2,290.4 165.3,291.1 163.6,290.4 L124.5,273.2 C122.9,272.5 122.1,270.6 122.8,268.9 C123.5,267.3 125.4,266.5 127.1,267.2 L166.2,284.4 L166.2,284.4 Z" id="Shape"></path>
                            <path d="M152.3,316 C153.9,316.7 154.7,318.6 154,320.3 C153.3,321.9 151.4,322.7 149.7,322 L110.6,304.8 C109,304.1 108.2,302.2 108.9,300.5 C109.6,298.9 111.5,298.1 113.2,298.8 L152.3,316 L152.3,316 Z" id="Shape"></path>
                            <path d="M138.3,347.7 C139.9,348.4 140.7,350.3 140,352 C139.3,353.7 137.4,354.4 135.7,353.7 L96.6,336.5 C95,335.8 94.2,333.9 94.9,332.2 C95.6,330.5 97.5,329.8 99.2,330.5 L138.3,347.7 L138.3,347.7 Z" id="Shape"></path>
                            <path d="M124.4,379.3 C126,380 126.8,381.9 126.1,383.6 C125.4,385.2 123.5,386 121.8,385.3 L82.7,368.1 C81.1,367.4 80.3,365.5 81,363.8 C81.7,362.2 83.6,361.4 85.3,362.1 L124.4,379.3 L124.4,379.3 Z" id="Shape"></path>
                            <path d="M107.9,416.8 C109.5,417.5 110.3,419.4 109.6,421.1 C108.9,422.7 107,423.5 105.3,422.8 L66.2,405.6 C64.6,404.9 63.8,403 64.5,401.3 C65.2,399.7 67.1,398.9 68.8,399.6 L107.9,416.8 L107.9,416.8 Z" id="Shape"></path>
                            <path d="M97.3,441 C98.9,441.7 99.7,443.6 99,445.3 C98.3,447 96.4,447.7 94.7,447 L55.6,429.8 C54,429.1 53.2,427.2 53.9,425.5 C54.6,423.8 56.5,423.1 58.2,423.8 L97.3,441 L97.3,441 Z" id="Shape"></path>
                            <path d="M86.6,465.2 C88.2,465.9 89,467.8 88.3,469.5 C87.6,471.1 85.7,471.9 84,471.2 L44.9,454 C43.3,453.3 42.5,451.4 43.2,449.7 C43.9,448.1 45.8,447.3 47.5,448 L86.6,465.2 L86.6,465.2 Z" id="Shape"></path>
                            <path d="M76,489.4 C77.6,490.1 78.4,492 77.7,493.7 C77,495.3 75.1,496.1 73.4,495.4 L34.3,478.2 C32.7,477.5 31.9,475.6 32.6,473.9 C33.3,472.3 35.2,471.5 36.9,472.2 L76,489.4 L76,489.4 Z" id="Shape"></path>
                            <path d="M65.3,513.6 C66.9,514.3 67.7,516.2 67,517.9 C66.3,519.5 64.4,520.3 62.7,519.6 L23.6,502.4 C22,501.7 21.2,499.8 21.9,498.1 C22.6,496.4 24.5,495.7 26.2,496.4 L65.3,513.6 L65.3,513.6 Z" id="Shape"></path>
                            <path d="M54.7,537.8 C56.3,538.5 57.1,540.4 56.4,542.1 C55.7,543.7 53.8,544.5 52.1,543.8 L13,526.6 C11.4,525.9 10.6,524 11.3,522.3 C12,520.7 13.9,519.9 15.6,520.6 L54.7,537.8 L54.7,537.8 Z" id="Shape"></path>
                            <circle id="Oval" cx="265.8" cy="5" r="4.2"></circle>
                            <circle id="Oval" cx="49.8" cy="495.9" r="4.2"></circle>
                            <circle id="Oval" cx="235.8" cy="73" r="4.2"></circle>
                            <circle id="Oval" cx="208" cy="136.3" r="4.2"></circle>
                            <circle id="Oval" cx="180.1" cy="199.6" r="4.2"></circle>
                            <circle id="Oval" cx="152.3" cy="262.9" r="4.2"></circle>
                            <circle id="Oval" cx="124.4" cy="326.2" r="4.2"></circle>
                            <circle id="Oval" cx="28.5" cy="544.2" r="4.2"></circle>
                            <circle id="Oval" cx="71.1" cy="447.5" r="4.2"></circle>
                            <g transform="translate(79.000000, 383.000000)" id="Oval">
                                <circle cx="5.1" cy="4.5" r="4.2"></circle>
                                <circle cx="27.5" cy="14.4" r="4.2"></circle>
                            </g>
                        </g>
                        <g id="strings" transform="translate(0.000000, 11.000000)" stroke="#333333" stroke-width="4">
                            <path d="M386.5,0.9 L62.3,720.4 L0.7,857.3" id="stringStraight_4"></path>
                            <path d="M396.1,5.1 L75,726.1 L14,863.2" id="stringStraight_3"></path>
                            <path d="M404.7,8.9 L90,732.6 L30.1,870.3" id="stringStraight_2"></path>
                            <path d="M414.3,13.1 L102.7,738.2 L43.4,876.1" id="stringStraight_1"></path>
                        </g>
                        <g id="penStringsPlucked" transform="translate(0.000000, 11.000000)">
                            <path d="M386.5,0.9 L67.3,722 L0.7,857.3" id="stringPlucked_4"></path>
                            <path d="M396.1,5.1 L80,727.6 L14,863.2" id="stringPlucked_3"></path>
                            <path d="M404.7,8.9 L94.9,734.2 L30.1,870.3" id="stringPlucked_2"></path>
                            <path d="M414.3,13.1 L107.6,739.8 L43.4,876.1" id="stringPlucked_1"></path>
                        </g>
                    </g>
                </g>
            </g>
        </g>
    </g>
</svg>