<?xml version="1.0" encoding="UTF-8" standalone="no"?>
<svg width="1420px" height="562px" viewBox="0 0 1420 562" version="1.1" xmlns="http://www.w3.org/2000/svg" xmlns:xlink="http://www.w3.org/1999/xlink">
    <!-- Generator: Sketch 3.6.1 (26313) - http://www.bohemiancoding.com/sketch -->
    <title>Drums-small</title>
    <desc>Created with Sketch.</desc>
    <defs></defs>
    <g id="Page-1" stroke="none" stroke-width="1" fill="none" fill-rule="evenodd">
        <g id="Drums-small">
            <g id="drums" transform="translate(14.000000, 56.000000)">
                <g id="Drums">
                    <g id="Group">
                        <g id="Snare" transform="translate(867.368421, 315.769231)">
                            <g id="Snare-Drum" transform="translate(12.631579, 0.000000)">
                                <rect id="Rectangle-path" stroke="#333333" stroke-width="8" fill="#0BC1F8" x="10.5263158" y="0" width="234.736842" height="115.782051"></rect>
                                <path d="M241.052632,30.524359 L14.7368421,30.524359" id="Shape" stroke="#0891BA" stroke-width="8"></path>
                                <g id="Group" transform="translate(2.105263, 25.261538)" stroke="#333333">
                                    <path d="M16.8421053,43.1551282 C16.8421053,47.7864103 13.0526316,51.575641 8.42105263,51.575641 L8.42105263,51.575641 C3.78947368,51.575641 0,47.7864103 0,43.1551282 L0,22.1038462 C0,17.4725641 3.78947368,13.6833333 8.42105263,13.6833333 L8.42105263,13.6833333 C13.0526316,13.6833333 16.8421053,17.4725641 16.8421053,22.1038462 L16.8421053,43.1551282 L16.8421053,43.1551282 Z" id="Shape" stroke-width="6" fill="#EEFAF9"></path>
                                    <path d="M251.578947,43.1551282 C251.578947,47.7864103 247.789474,51.575641 243.157895,51.575641 L243.157895,51.575641 C238.526316,51.575641 234.736842,47.7864103 234.736842,43.1551282 L234.736842,22.1038462 C234.736842,17.4725641 238.526316,13.6833333 243.157895,13.6833333 L243.157895,13.6833333 C247.789474,13.6833333 251.578947,17.4725641 251.578947,22.1038462 L251.578947,43.1551282 L251.578947,43.1551282 Z" id="Shape" stroke-width="6" fill="#EEFAF9"></path>
                                    <g transform="translate(77.894737, 0.000000)" id="Shape">
                                        <path d="M8.42105263,65.2589744 L8.42105263,51.575641" stroke-width="8"></path>
                                        <path d="M8.42105263,13.6833333 L8.42105263,0" stroke-width="8"></path>
                                        <path d="M16.8421053,43.1551282 C16.8421053,47.7864103 13.0526316,51.575641 8.42105263,51.575641 L8.42105263,51.575641 C3.78947368,51.575641 0,47.7864103 0,43.1551282 L0,22.1038462 C0,17.4725641 3.78947368,13.6833333 8.42105263,13.6833333 L8.42105263,13.6833333 C13.0526316,13.6833333 16.8421053,17.4725641 16.8421053,22.1038462 L16.8421053,43.1551282 L16.8421053,43.1551282 Z" stroke-width="6" fill="#EEFAF9"></path>
                                    </g>
                                    <g transform="translate(156.842105, 0.000000)" id="Shape">
                                        <path d="M8.42105263,65.2589744 L8.42105263,51.575641" stroke-width="8"></path>
                                        <path d="M8.42105263,13.6833333 L8.42105263,0" stroke-width="8"></path>
                                        <path d="M16.8421053,43.1551282 C16.8421053,47.7864103 13.0526316,51.575641 8.42105263,51.575641 L8.42105263,51.575641 C3.78947368,51.575641 0,47.7864103 0,43.1551282 L0,22.1038462 C0,17.4725641 3.78947368,13.6833333 8.42105263,13.6833333 L8.42105263,13.6833333 C13.0526316,13.6833333 16.8421053,17.4725641 16.8421053,22.1038462 L16.8421053,43.1551282 L16.8421053,43.1551282 Z" stroke-width="6" fill="#EEFAF9"></path>
                                    </g>
                                </g>
                                <rect id="Rectangle-path" stroke="#333333" stroke-width="8" fill="#EEFAF9" x="0" y="0" width="253.684211" height="22.1038462"></rect>
                                <rect id="Rectangle-path" stroke="#333333" stroke-width="8" fill="#EEFAF9" x="0" y="93.6782051" width="253.684211" height="22.1038462"></rect>
                                <path d="M4.21052632,15.7884615 L249.473684,15.7884615" id="Shape" stroke="#BCECE8" stroke-width="4"></path>
                                <path d="M4.21052632,109.466667 L249.473684,109.466667" id="Shape" stroke="#BCECE8" stroke-width="4"></path>
                            </g>
                            <g id="Snare-Stand" transform="translate(0.000000, 92.625641)">
                                <g id="Group">
                                    <g id="Shape">
                                        <g>
                                            <path d="M13.6842105,6.94692308 C13.6842105,3.0524359 10.7368421,0 6.84210526,0 C2.94736842,0 0,3.15769231 0,6.94692308 L0,19.9987179 L13.6842105,19.9987179 L13.6842105,6.94692308 L13.6842105,6.94692308 Z" stroke="#333333" stroke-width="6" fill="#5C5C5C"></path>
                                            <path d="M13.6842105,25.5773077 L13.6842105,19.9987179 L0,19.9987179 L0,30.524359 C0,34.3135897 2.63157895,37.9975641 6.42105263,38.4185897 L135.157895,52.7334615 L136.421053,39.1553846 L13.6842105,25.5773077 L13.6842105,25.5773077 Z" stroke="#333333" stroke-width="6" fill="#EEFAF9"></path>
                                            <path d="M7.15789474,35.3661538 L132.210526,49.3652564 L132.421053,47.2601282 L4.42105263,32.9452564 C4.84210526,34.2083333 5.89473684,35.155641 7.15789474,35.3661538 L7.15789474,35.3661538 Z" fill="#BCECE8"></path>
                                        </g>
                                        <g transform="translate(144.210526, 0.000000)">
                                            <path d="M134.736842,19.9987179 L121.052632,19.9987179 L121.052632,25.5773077 L0.315789474,39.0501282 L2,52.6282051 L128.842105,38.4185897 C132.631579,37.9975641 134.631579,34.2083333 134.631579,30.524359 L134.631579,30.524359 L134.631579,19.9987179 L134.736842,19.9987179 Z" stroke="#333333" stroke-width="6" fill="#EEFAF9"></path>
                                            <path d="M4.73684211,47.0496154 L4.94736842,49.1547436 L128.947368,35.3661538 C130.105263,35.2608974 130.947368,34.4188462 131.578947,33.3662821 L4.73684211,47.0496154 L4.73684211,47.0496154 Z" fill="#BCECE8"></path>
                                            <path d="M134.736842,6.94692308 C134.736842,3.0524359 131.789474,0 127.894737,0 C124,0 121.052632,3.15769231 121.052632,6.94692308 L121.052632,19.9987179 L134.736842,19.9987179 L134.736842,6.94692308 L134.736842,6.94692308 Z" stroke="#333333" stroke-width="6" fill="#5C5C5C"></path>
                                        </g>
                                    </g>
                                    <g transform="translate(45.263158, 27.366667)">
                                        <g transform="translate(86.315789, 9.473077)">
                                            <rect id="Rectangle-path" stroke="#333333" stroke-width="6.00009778" fill="#EEFAF9" transform="translate(8.548964, 48.962014) rotate(0.327100) translate(-8.548964, -48.962014) " x="1.70674772" y="9.49021721" width="13.6844335" height="78.9435942"></rect>
                                            <ellipse id="Oval" stroke="#333333" stroke-width="6" fill="#EEFAF9" cx="9.05263158" cy="9.2625641" rx="8.94736842" ry="8.94679487"></ellipse>
                                            <ellipse id="Oval" fill="#333333" cx="9.05263158" cy="9.2625641" rx="2.10526316" ry="2.10512821"></ellipse>
                                        </g>
                                        <g transform="translate(89.473684, 0.000000)">
                                            <path d="M98.3157895,5.89435897 C95.6842105,3.15769231 91.3684211,3.15769231 88.6315789,5.78910256 L0.421052632,93.0466667 L10,102.730256 L98.2105263,15.4726923 C100.947368,12.8412821 100.947368,8.52576923 98.3157895,5.89435897 L98.3157895,5.89435897 Z" id="Shape" stroke="#333333" stroke-width="6" fill="#EEFAF9"></path>
                                            <path d="M88.3157895,18.9461538 L20.2105263,86.3102564" id="Shape" stroke="#BCECE8" stroke-width="2"></path>
                                            <ellipse id="Oval" stroke="#333333" stroke-width="6" fill="#EEFAF9" cx="94.3157895" cy="9.2625641" rx="8.94736842" ry="8.94679487"></ellipse>
                                            <ellipse id="Oval" fill="#333333" cx="94.3157895" cy="9.2625641" rx="2.10526316" ry="2.10512821"></ellipse>
                                        </g>
                                        <g>
                                            <path d="M3.89473684,4.84179487 C1.15789474,7.47320513 1.15789474,11.7887179 3.78947368,14.5253846 L91.0526316,102.730256 L100.736842,93.1519231 L13.4736842,4.94705128 C10.9473684,2.21038462 6.63157895,2.21038462 3.89473684,4.84179487 L3.89473684,4.84179487 Z" id="Shape" stroke="#333333" stroke-width="6" fill="#EEFAF9"></path>
                                            <path d="M8.21052632,12.6307692 L81.1578947,86.3102564" id="Shape" stroke="#BCECE8" stroke-width="2"></path>
                                            <ellipse id="Oval" stroke="#333333" stroke-width="6" fill="#EEFAF9" cx="9.05263158" cy="9.2625641" rx="8.94736842" ry="8.94679487"></ellipse>
                                            <ellipse id="Oval" fill="#333333" cx="9.05263158" cy="9.2625641" rx="2.10526316" ry="2.10512821"></ellipse>
                                        </g>
                                    </g>
                                </g>
                            </g>
                        </g>
                        <g id="Floor-Tom" transform="translate(141.052632, 308.401282)">
                            <g id="Floor-Tom-Drum" transform="translate(26.315789, 0.000000)">
                                <rect id="Rectangle-path" stroke="#333333" stroke-width="8" fill="#0BC1F8" x="9.47368421" y="0" width="302.105263" height="336.820513"></rect>
                                <path d="M307.368421,30.524359 L13.6842105,30.524359" id="Shape" stroke="#0891BA" stroke-width="8"></path>
                                <g id="Group">
                                    <g transform="translate(1.052632, 22.103846)" id="Shape" stroke="#333333">
                                        <path d="M16.8421053,43.1551282 C16.8421053,47.7864103 13.0526316,51.575641 8.42105263,51.575641 L8.42105263,51.575641 C3.78947368,51.575641 0,47.7864103 0,43.1551282 L0,22.1038462 C0,17.4725641 3.78947368,13.6833333 8.42105263,13.6833333 L8.42105263,13.6833333 C13.0526316,13.6833333 16.8421053,17.4725641 16.8421053,22.1038462 L16.8421053,43.1551282 L16.8421053,43.1551282 Z" stroke-width="6" fill="#EEFAF9"></path>
                                        <path d="M318.947368,43.1551282 C318.947368,47.7864103 315.157895,51.575641 310.526316,51.575641 L310.526316,51.575641 C305.894737,51.575641 302.105263,47.7864103 302.105263,43.1551282 L302.105263,22.1038462 C302.105263,17.4725641 305.894737,13.6833333 310.526316,13.6833333 L310.526316,13.6833333 C315.157895,13.6833333 318.947368,17.4725641 318.947368,22.1038462 L318.947368,43.1551282 L318.947368,43.1551282 Z" stroke-width="6" fill="#EEFAF9"></path>
                                        <g transform="translate(101.052632, 0.000000)">
                                            <path d="M8.42105263,13.6833333 L8.42105263,0" stroke-width="8"></path>
                                            <path d="M16.8421053,43.1551282 C16.8421053,47.7864103 13.0526316,51.575641 8.42105263,51.575641 L8.42105263,51.575641 C3.78947368,51.575641 0,47.7864103 0,43.1551282 L0,22.1038462 C0,17.4725641 3.78947368,13.6833333 8.42105263,13.6833333 L8.42105263,13.6833333 C13.0526316,13.6833333 16.8421053,17.4725641 16.8421053,22.1038462 L16.8421053,43.1551282 L16.8421053,43.1551282 Z" stroke-width="6" fill="#EEFAF9"></path>
                                        </g>
                                        <g transform="translate(201.052632, 0.000000)">
                                            <path d="M8.42105263,13.6833333 L8.42105263,0" stroke-width="8"></path>
                                            <path d="M16.8421053,43.1551282 C16.8421053,47.7864103 13.0526316,51.575641 8.42105263,51.575641 L8.42105263,51.575641 C3.78947368,51.575641 0,47.7864103 0,43.1551282 L0,22.1038462 C0,17.4725641 3.78947368,13.6833333 8.42105263,13.6833333 L8.42105263,13.6833333 C13.0526316,13.6833333 16.8421053,17.4725641 16.8421053,22.1038462 L16.8421053,43.1551282 L16.8421053,43.1551282 Z" stroke-width="6" fill="#EEFAF9"></path>
                                        </g>
                                    </g>
                                    <rect id="Rectangle-path" stroke="#333333" stroke-width="8" fill="#EEFAF9" x="0" y="0" width="320" height="22.1038462"></rect>
                                    <path d="M4.21052632,15.7884615 L315.789474,15.7884615" id="Shape" stroke="#BCECE8" stroke-width="4"></path>
                                </g>
                            </g>
                            <g id="Floor-Tom-Legs" transform="translate(0.000000, 131.570513)" stroke-width="6" stroke="#333333" fill="#EEFAF9">
                                <g id="Group">
                                    <path d="M20.3157895,126.097179 L8.42105263,181.567308 L8.42105263,261.772692 C8.42105263,265.035641 10.9473684,267.772308 14.2105263,267.772308 C17.4736842,267.772308 20,265.140897 20,261.772692 L20,182.830385 L31.8947368,127.360256 L43.6842105,71.8901282 L47.4736842,54.4175641 L36,52.1019231 L20.3157895,126.097179 L20.3157895,126.097179 Z" id="Shape"></path>
                                    <path d="M48.4210526,11.5782051 C48.4210526,5.68384615 43.2631579,0.842051282 37.3684211,0.842051282 C31.4736842,0.842051282 26.3157895,5.68384615 26.3157895,11.5782051 L26.3157895,72.6269231 L48.4210526,72.6269231 L48.4210526,11.5782051 L48.4210526,11.5782051 Z" id="Shape"></path>
                                </g>
                                <g id="Group" transform="translate(174.736842, 0.000000)">
                                    <path d="M25.2631579,11.5782051 C25.2631579,5.68384615 20.1052632,0.842051282 14.2105263,0.842051282 C8.31578947,0.842051282 3.15789474,5.68384615 3.15789474,11.5782051 L3.15789474,72.6269231 L25.2631579,72.6269231 L25.2631579,11.5782051 L25.2631579,11.5782051 Z" id="Shape"></path>
                                </g>
                                <g id="Group" transform="translate(325.263158, 0.000000)">
                                    <path d="M29.0526316,126.097179 L14.1052632,51.8914103 L2.84210526,54.2070513 L6.42105263,71.6796154 L17.4736842,127.149744 L28.4210526,182.619872 L28.4210526,261.562179 C28.4210526,264.825128 30.9473684,267.561795 34.2105263,267.561795 C37.4736842,267.561795 40,264.930385 40,261.562179 L40,181.356795 L29.0526316,126.097179 L29.0526316,126.097179 Z" id="Shape"></path>
                                    <path d="M0,11.5782051 C0,5.68384615 5.15789474,0.842051282 11.0526316,0.842051282 C16.9473684,0.842051282 22.1052632,5.68384615 22.1052632,11.5782051 L22.1052632,72.6269231 L0,72.6269231 L0,11.5782051 L0,11.5782051 Z" id="Shape"></path>
                                </g>
                            </g>
                        </g>
                        <g id="Hi-Hat" transform="translate(1070.526316, 147.358974)">
                            <g id="Hi-Hat-Stand-Top">
                                <path d="M109.473684,130.517949 L109.473684,6.52589744 C109.473684,3.26294872 106.947368,0.526282051 103.684211,0.526282051 C100.421053,0.526282051 97.8947368,3.15769231 97.8947368,6.52589744 L97.8947368,130.517949 L109.473684,130.517949 L109.473684,130.517949 Z" id="Shape" stroke="#333333" stroke-width="6" fill="#EEFAF9"></path>
                                <path d="M112.631579,288.192051 C112.631579,293.033846 108.736842,296.823077 104,296.823077 L103.473684,296.823077 C98.6315789,296.823077 94.8421053,292.92859 94.8421053,288.192051 L94.8421053,38.1028205 C94.8421053,33.2610256 98.7368421,29.4717949 103.473684,29.4717949 L104,29.4717949 C108.842105,29.4717949 112.631579,33.3662821 112.631579,38.1028205 L112.631579,288.192051 L112.631579,288.192051 Z" id="Shape" stroke="#333333" stroke-width="6" fill="#EEFAF9"></path>
                                <rect id="Rectangle-path" fill="#BCECE8" x="97.8947368" y="78.9423077" width="11.5789474" height="82.1"></rect>
                                <path d="M118.631579,52.6282051 C118.631579,51.575641 117.894737,51.9966667 117.894737,51.8914103 L117.894737,51.3651282 C117.894737,46.5233333 114.736842,43.1551282 109.894737,43.1551282 L98.8421053,43.1551282 C94,43.1551282 89.4736842,46.5233333 89.4736842,51.3651282 L89.4736842,51.8914103 C89.4736842,51.9966667 90.2105263,51.575641 90.2105263,52.6282051 L118.631579,52.6282051 L118.631579,52.6282051 Z" id="Shape" stroke="#333333" stroke-width="6" fill="#5C5C5C"></path>
                                <g id="Hi-Hat-Top" transform="translate(0.000000, 52.628205)">
                                    <path d="M199.789474,15.4726923 L165.052632,14.630641 C140.842105,14.104359 130.526316,9.89410256 123.473684,5.1575641 L123.578947,5.36807692 C119.894737,2.42089744 115.263158,0.947307692 110.210526,0.947307692 L104,0.947307692 L97.7894737,0.947307692 C92.7368421,0.947307692 88,2.42089744 84.3157895,5.36807692 L84.3157895,5.26282051 C77.3684211,9.99935897 66.8421053,14.104359 42.6315789,14.630641 L7.36842105,15.3674359 C3.47368421,15.3674359 0,18.209359 0,22.1038462 L0,22.2091026 C0,26.1035897 3.78947368,29.2612821 7.68421053,29.2612821 L103.894737,29.2612821 L200.105263,29.2612821 C204,29.2612821 206.210526,26.1035897 206.210526,22.2091026 L206.210526,22.1038462 C206.315789,18.4198718 203.684211,15.4726923 199.789474,15.4726923 L199.789474,15.4726923 Z" id="Shape" stroke="#333333" stroke-width="6" fill="#FDE74C"></path>
                                    <path d="M93.6842105,8.42051282 L112.631579,8.42051282" id="Shape" stroke="#FEF5B7" stroke-width="4"></path>
                                </g>
                            </g>
                            <g id="Hi-Hat-Bottom" transform="translate(0.000000, 84.205128)">
                                <path d="M7.36842105,13.9991026 L41.8947368,14.8411538 C66.1052632,15.3674359 76.8421053,19.5776923 83.1578947,24.3142308 L83.1578947,24.3142308 C87.3684211,27.2614103 92.6315789,29.4717949 97.6842105,29.4717949 L103.894737,29.4717949 L110.105263,29.4717949 C115.157895,29.4717949 119.894737,27.4719231 123.578947,24.5247436 L123.578947,24.4194872 C130.526316,19.6829487 141.052632,15.4726923 165.263158,14.8411538 L199.789474,13.9991026 C203.684211,13.9991026 206.315789,11.0519231 206.315789,7.1574359 L206.315789,7.05217949 C206.315789,3.15769231 204,0.947307692 200.210526,0.947307692 L104,0.947307692 L7.78947368,0.947307692 C3.89473684,0.947307692 0.105263158,3.15769231 0.105263158,7.05217949 L0.105263158,7.1574359 C-7.18730631e-14,11.1571795 3.47368421,13.9991026 7.36842105,13.9991026 L7.36842105,13.9991026 Z" id="Shape" stroke="#333333" stroke-width="6" fill="#FDE74C"></path>
                                <path d="M93.6842105,22.1038462 L112.631579,22.1038462" id="Shape" stroke="#BEAD39" stroke-width="4" opacity="0.3"></path>
                            </g>
                            <g id="Hi-Hat-Stand" transform="translate(9.473684, 112.624359)" stroke="#333333" stroke-width="6">
                                <rect id="Rectangle-path" fill="#EEFAF9" x="85.2631579" y="1.0525641" width="17.8947368" height="386.291026"></rect>
                                <g id="Group" transform="translate(80.000000, 152.621795)" fill="#EEFAF9">
                                    <ellipse id="Oval" cx="31.2631579" cy="22.6301282" rx="10.5263158" ry="10.525641"></ellipse>
                                    <path d="M28.4210526,34.8398718 C28.4210526,41.1552564 23.2631579,46.3128205 16.9473684,46.3128205 L11.5789474,46.3128205 C5.26315789,46.3128205 0.105263158,41.1552564 0.105263158,34.8398718 L0.105263158,11.5782051 C0.105263158,5.26282051 5.26315789,0.10525641 11.5789474,0.10525641 L16.9473684,0.10525641 C23.2631579,0.10525641 28.4210526,5.26282051 28.4210526,11.5782051 L28.4210526,34.8398718 L28.4210526,34.8398718 Z" id="Shape"></path>
                                </g>
                                <path d="M80.7368421,1.0525641 C80.7368421,1.0525641 80,0.736794872 80,0.842051282 L80,1.36833333 C80,6.21012821 84.6315789,10.525641 89.3684211,10.525641 L100.421053,10.525641 C105.263158,10.525641 108.421053,6.10487179 108.421053,1.36833333 L108.421053,0.842051282 C108.421053,0.736794872 109.157895,1.0525641 109.157895,1.0525641 L80.7368421,1.0525641 L80.7368421,1.0525641 Z" id="Shape" fill="#5C5C5C"></path>
                            </g>
                        </g>
                        <g id="Main-Kit" transform="translate(387.368421, 98.941026)">
                            <g id="Toms">
                                <g id="Tom-Rack" transform="translate(260.000000, 85.257692)" stroke="#333333" stroke-width="6" fill="#EEFAF9">
                                    <path d="M22.1052632,0.842051282 C28,0.842051282 32.6315789,5.68384615 32.6315789,11.5782051 L32.6315789,117.887179 C32.6315789,124.202564 11.5789474,124.202564 11.5789474,117.887179 L11.5789474,11.5782051 C11.5789474,5.68384615 16.2105263,0.842051282 22.1052632,0.842051282 L22.1052632,0.842051282 L22.1052632,0.842051282 Z" id="Shape"></path>
                                    <path d="M67.3684211,117.887179 L67.3684211,11.5782051 C67.3684211,5.68384615 72,0.842051282 77.8947368,0.842051282 L77.8947368,0.842051282 C83.7894737,0.842051282 88.4210526,5.68384615 88.4210526,11.5782051 L88.4210526,117.887179 C88.4210526,123.781538 67.3684211,123.781538 67.3684211,117.887179 L67.3684211,117.887179 Z" id="Shape"></path>
                                    <path d="M99.6842105,117.887179 C99.6842105,124.307821 94.5263158,129.465385 88.1052632,129.465385 L12.3157895,129.465385 C5.89473684,129.465385 0.736842105,124.307821 0.736842105,117.887179 L0.736842105,117.887179 C0.736842105,111.466538 5.89473684,106.308974 12.3157895,106.308974 L88.1052632,106.308974 C94.5263158,106.308974 99.6842105,111.466538 99.6842105,117.887179 L99.6842105,117.887179 L99.6842105,117.887179 Z" id="Shape"></path>
                                </g>
                                <g id="Tom-Left-All">
                                    <g id="Tom-Left-Drum">
                                        <rect id="Rectangle-path" stroke="#333333" stroke-width="8" fill="#0BC1F8" x="9.47368421" y="0" width="232.631579" height="193.671795"></rect>
                                        <path d="M13.6842105,30.524359 L237.894737,30.524359" id="Shape" stroke="#0891BA" stroke-width="8"></path>
                                        <g id="Group">
                                            <g transform="translate(0.000000, 19.998718)" id="Shape" stroke="#333333" fill="#F8FDFD">
                                                <path d="M16.8421053,43.1551282 C16.8421053,47.7864103 13.0526316,51.575641 8.42105263,51.575641 L8.42105263,51.575641 C3.78947368,51.575641 0,47.7864103 0,43.1551282 L0,22.1038462 C0,17.4725641 3.78947368,13.6833333 8.42105263,13.6833333 L8.42105263,13.6833333 C13.0526316,13.6833333 16.8421053,17.4725641 16.8421053,22.1038462 L16.8421053,43.1551282 L16.8421053,43.1551282 Z" stroke-width="6"></path>
                                                <path d="M250.526316,43.1551282 C250.526316,47.7864103 246.736842,51.575641 242.105263,51.575641 L242.105263,51.575641 C237.473684,51.575641 233.684211,47.7864103 233.684211,43.1551282 L233.684211,22.1038462 C233.684211,17.4725641 237.473684,13.6833333 242.105263,13.6833333 L242.105263,13.6833333 C246.736842,13.6833333 250.526316,17.4725641 250.526316,22.1038462 L250.526316,43.1551282 L250.526316,43.1551282 Z" stroke-width="6"></path>
                                                <g transform="translate(77.894737, 0.000000)">
                                                    <path d="M8.42105263,13.6833333 L8.42105263,0" stroke-width="8"></path>
                                                    <path d="M16.8421053,43.1551282 C16.8421053,47.7864103 13.0526316,51.575641 8.42105263,51.575641 L8.42105263,51.575641 C3.78947368,51.575641 0,47.7864103 0,43.1551282 L0,22.1038462 C0,17.4725641 3.78947368,13.6833333 8.42105263,13.6833333 L8.42105263,13.6833333 C13.0526316,13.6833333 16.8421053,17.4725641 16.8421053,22.1038462 L16.8421053,43.1551282 L16.8421053,43.1551282 Z" stroke-width="6"></path>
                                                </g>
                                                <g transform="translate(155.789474, 0.000000)">
                                                    <path d="M8.42105263,13.6833333 L8.42105263,0" stroke-width="8"></path>
                                                    <path d="M16.8421053,43.1551282 C16.8421053,47.7864103 13.0526316,51.575641 8.42105263,51.575641 L8.42105263,51.575641 C3.78947368,51.575641 0,47.7864103 0,43.1551282 L0,22.1038462 C0,17.4725641 3.78947368,13.6833333 8.42105263,13.6833333 L8.42105263,13.6833333 C13.0526316,13.6833333 16.8421053,17.4725641 16.8421053,22.1038462 L16.8421053,43.1551282 L16.8421053,43.1551282 Z" stroke-width="6"></path>
                                                </g>
                                            </g>
                                            <rect id="Rectangle-path" stroke="#333333" stroke-width="8" fill="#F8FDFD" x="0" y="0" width="250.526316" height="22.1038462"></rect>
                                            <path d="M246.315789,15.7884615 L4.21052632,15.7884615" id="Shape" stroke="#BCECE8" stroke-width="4"></path>
                                        </g>
                                        <g id="Group" transform="translate(0.000000, 122.097436)">
                                            <g id="Shape" stroke="#333333" fill="#EEFAF9">
                                                <path d="M250.526316,29.4717949 C250.526316,34.1030769 246.736842,37.8923077 242.105263,37.8923077 L242.105263,37.8923077 C237.473684,37.8923077 233.684211,34.1030769 233.684211,29.4717949 L233.684211,8.42051282 C233.684211,3.78923077 237.473684,0 242.105263,0 L242.105263,0 C246.736842,0 250.526316,3.78923077 250.526316,8.42051282 L250.526316,29.4717949 L250.526316,29.4717949 Z" stroke-width="6"></path>
                                                <path d="M16.8421053,29.4717949 C16.8421053,34.1030769 13.0526316,37.8923077 8.42105263,37.8923077 L8.42105263,37.8923077 C3.78947368,37.8923077 0,34.1030769 0,29.4717949 L0,8.42051282 C0,3.78923077 3.78947368,0 8.42105263,0 L8.42105263,0 C13.0526316,0 16.8421053,3.78923077 16.8421053,8.42051282 L16.8421053,29.4717949 L16.8421053,29.4717949 Z" stroke-width="6"></path>
                                                <g transform="translate(155.789474, 0.000000)">
                                                    <path d="M8.42105263,37.8923077 L8.42105263,51.575641" stroke-width="8"></path>
                                                    <path d="M16.8421053,29.4717949 C16.8421053,34.1030769 13.0526316,37.8923077 8.42105263,37.8923077 L8.42105263,37.8923077 C3.78947368,37.8923077 0,34.1030769 0,29.4717949 L0,8.42051282 C0,3.78923077 3.78947368,0 8.42105263,0 L8.42105263,0 C13.0526316,0 16.8421053,3.78923077 16.8421053,8.42051282 L16.8421053,29.4717949 L16.8421053,29.4717949 Z" stroke-width="6"></path>
                                                </g>
                                                <g transform="translate(77.894737, 0.000000)">
                                                    <path d="M8.42105263,37.8923077 L8.42105263,51.575641" stroke-width="8"></path>
                                                    <path d="M16.8421053,29.4717949 C16.8421053,34.1030769 13.0526316,37.8923077 8.42105263,37.8923077 L8.42105263,37.8923077 C3.78947368,37.8923077 0,34.1030769 0,29.4717949 L0,8.42051282 C0,3.78923077 3.78947368,0 8.42105263,0 L8.42105263,0 C13.0526316,0 16.8421053,3.78923077 16.8421053,8.42051282 L16.8421053,29.4717949 L16.8421053,29.4717949 Z" stroke-width="6"></path>
                                                </g>
                                            </g>
                                            <rect id="Rectangle-path" stroke="#333333" stroke-width="8" fill="#F8FDFD" x="0" y="49.4705128" width="250.526316" height="22.1038462"></rect>
                                            <path d="M246.315789,66.3115385 L4.21052632,66.3115385" id="Shape" stroke="#BCECE8" stroke-width="4"></path>
                                        </g>
                                    </g>
                                    <g id="Group" transform="translate(201.052632, 73.679487)">
                                        <path d="M28.4210526,34.8398718 C28.4210526,41.1552564 23.2631579,46.3128205 16.9473684,46.3128205 L11.5789474,46.3128205 C5.26315789,46.3128205 0.105263158,41.1552564 0.105263158,34.8398718 L0.105263158,11.5782051 C0.105263158,5.26282051 5.26315789,0.10525641 11.5789474,0.10525641 L16.9473684,0.10525641 C23.2631579,0.10525641 28.4210526,5.26282051 28.4210526,11.5782051 L28.4210526,34.8398718 L28.4210526,34.8398718 Z" id="Shape" stroke="#333333" stroke-width="6" fill="#EEFAF9"></path>
                                        <path d="M24.8421053,38.9448718 L4.94736842,38.9448718 C6.42105263,41.4710256 9.05263158,43.1551282 12.2105263,43.1551282 L17.5789474,43.1551282 C20.7368421,43.1551282 23.4736842,41.4710256 24.8421053,38.9448718 L24.8421053,38.9448718 Z" id="Shape" fill="#BCECE8"></path>
                                        <path d="M23.3684211,33.6820513 L80,33.6820513 L80,33.6820513 C86.3157895,33.6820513 91.2631579,29.0507692 91.2631579,23.1564103 C91.2631579,17.2620513 86.9473684,12.6307692 81.0526316,12.6307692 L81.1578947,12.6307692 L23.2631579,12.6307692 C17.3684211,12.6307692 12.5263158,17.2620513 12.5263158,23.1564103 C12.6315789,29.0507692 17.3684211,33.6820513 23.3684211,33.6820513 L23.3684211,33.6820513 Z" id="Shape" stroke="#333333" stroke-width="6" fill="#EEFAF9"></path>
                                        <path d="M87.7894737,26.3141026 L16.4210526,26.3141026 C17.5789474,28.8402564 20.2105263,30.524359 23.2631579,30.524359 L80.5263158,30.524359 L80.6315789,30.524359 C84,30.524359 86.6315789,28.8402564 87.7894737,26.3141026 L87.7894737,26.3141026 Z" id="Shape" fill="#BCECE8"></path>
                                        <ellipse id="Oval" stroke="#333333" stroke-width="6" fill="#EEFAF9" cx="81.1578947" cy="22.9458974" rx="14" ry="13.9991026"></ellipse>
                                        <path d="M83.6842105,19.5776923 C81.7894737,18.209359 79.1578947,18.6303846 77.7894737,20.525 C76.4210526,22.4196154 76.8421053,25.0510256 78.7368421,26.419359 C80.6315789,27.7876923 83.2631579,27.3666667 84.6315789,25.4720513 C86,23.5774359 85.5789474,20.9460256 83.6842105,19.5776923 L83.6842105,19.5776923 Z" id="Shape" fill="#333333"></path>
                                    </g>
                                </g>
                                <g id="Tom-Right-All" transform="translate(324.210526, 0.000000)">
                                    <g id="Tom-Right-Drum" transform="translate(45.263158, 0.000000)">
                                        <rect id="Rectangle-path" stroke="#333333" stroke-width="8" fill="#0BC1F8" x="9.47368421" y="0" width="232.631579" height="193.671795"></rect>
                                        <path d="M13.6842105,30.524359 L237.894737,30.524359" id="Shape" stroke="#0891BA" stroke-width="8"></path>
                                        <g id="Group">
                                            <g transform="translate(0.000000, 19.998718)" id="Shape" stroke="#333333" fill="#F8FDFD">
                                                <path d="M16.8421053,43.1551282 C16.8421053,47.7864103 13.0526316,51.575641 8.42105263,51.575641 L8.42105263,51.575641 C3.78947368,51.575641 0,47.7864103 0,43.1551282 L0,22.1038462 C0,17.4725641 3.78947368,13.6833333 8.42105263,13.6833333 L8.42105263,13.6833333 C13.0526316,13.6833333 16.8421053,17.4725641 16.8421053,22.1038462 L16.8421053,43.1551282 L16.8421053,43.1551282 Z" stroke-width="6"></path>
                                                <path d="M250.526316,43.1551282 C250.526316,47.7864103 246.736842,51.575641 242.105263,51.575641 L242.105263,51.575641 C237.473684,51.575641 233.684211,47.7864103 233.684211,43.1551282 L233.684211,22.1038462 C233.684211,17.4725641 237.473684,13.6833333 242.105263,13.6833333 L242.105263,13.6833333 C246.736842,13.6833333 250.526316,17.4725641 250.526316,22.1038462 L250.526316,43.1551282 L250.526316,43.1551282 Z" stroke-width="6"></path>
                                                <g transform="translate(77.894737, 0.000000)">
                                                    <path d="M8.42105263,13.6833333 L8.42105263,0" stroke-width="8"></path>
                                                    <path d="M16.8421053,43.1551282 C16.8421053,47.7864103 13.0526316,51.575641 8.42105263,51.575641 L8.42105263,51.575641 C3.78947368,51.575641 0,47.7864103 0,43.1551282 L0,22.1038462 C0,17.4725641 3.78947368,13.6833333 8.42105263,13.6833333 L8.42105263,13.6833333 C13.0526316,13.6833333 16.8421053,17.4725641 16.8421053,22.1038462 L16.8421053,43.1551282 L16.8421053,43.1551282 Z" stroke-width="6"></path>
                                                </g>
                                                <g transform="translate(155.789474, 0.000000)">
                                                    <path d="M8.42105263,13.6833333 L8.42105263,0" stroke-width="8"></path>
                                                    <path d="M16.8421053,43.1551282 C16.8421053,47.7864103 13.0526316,51.575641 8.42105263,51.575641 L8.42105263,51.575641 C3.78947368,51.575641 0,47.7864103 0,43.1551282 L0,22.1038462 C0,17.4725641 3.78947368,13.6833333 8.42105263,13.6833333 L8.42105263,13.6833333 C13.0526316,13.6833333 16.8421053,17.4725641 16.8421053,22.1038462 L16.8421053,43.1551282 L16.8421053,43.1551282 Z" stroke-width="6"></path>
                                                </g>
                                            </g>
                                            <rect id="Rectangle-path" stroke="#333333" stroke-width="8" fill="#F8FDFD" x="0" y="0" width="250.526316" height="22.1038462"></rect>
                                            <path d="M246.315789,15.7884615 L4.21052632,15.7884615" id="Shape" stroke="#BCECE8" stroke-width="4"></path>
                                        </g>
                                        <g id="Group" transform="translate(0.000000, 122.097436)">
                                            <g id="Shape" stroke="#333333" fill="#EEFAF9">
                                                <path d="M250.526316,29.4717949 C250.526316,34.1030769 246.736842,37.8923077 242.105263,37.8923077 L242.105263,37.8923077 C237.473684,37.8923077 233.684211,34.1030769 233.684211,29.4717949 L233.684211,8.42051282 C233.684211,3.78923077 237.473684,0 242.105263,0 L242.105263,0 C246.736842,0 250.526316,3.78923077 250.526316,8.42051282 L250.526316,29.4717949 L250.526316,29.4717949 Z" stroke-width="6"></path>
                                                <path d="M16.8421053,29.4717949 C16.8421053,34.1030769 13.0526316,37.8923077 8.42105263,37.8923077 L8.42105263,37.8923077 C3.78947368,37.8923077 0,34.1030769 0,29.4717949 L0,8.42051282 C0,3.78923077 3.78947368,0 8.42105263,0 L8.42105263,0 C13.0526316,0 16.8421053,3.78923077 16.8421053,8.42051282 L16.8421053,29.4717949 L16.8421053,29.4717949 Z" stroke-width="6"></path>
                                                <g transform="translate(155.789474, 0.000000)">
                                                    <path d="M8.42105263,37.8923077 L8.42105263,51.575641" stroke-width="8"></path>
                                                    <path d="M16.8421053,29.4717949 C16.8421053,34.1030769 13.0526316,37.8923077 8.42105263,37.8923077 L8.42105263,37.8923077 C3.78947368,37.8923077 0,34.1030769 0,29.4717949 L0,8.42051282 C0,3.78923077 3.78947368,0 8.42105263,0 L8.42105263,0 C13.0526316,0 16.8421053,3.78923077 16.8421053,8.42051282 L16.8421053,29.4717949 L16.8421053,29.4717949 Z" stroke-width="6"></path>
                                                </g>
                                                <g transform="translate(77.894737, 0.000000)">
                                                    <path d="M8.42105263,37.8923077 L8.42105263,51.575641" stroke-width="8"></path>
                                                    <path d="M16.8421053,29.4717949 C16.8421053,34.1030769 13.0526316,37.8923077 8.42105263,37.8923077 L8.42105263,37.8923077 C3.78947368,37.8923077 0,34.1030769 0,29.4717949 L0,8.42051282 C0,3.78923077 3.78947368,0 8.42105263,0 L8.42105263,0 C13.0526316,0 16.8421053,3.78923077 16.8421053,8.42051282 L16.8421053,29.4717949 L16.8421053,29.4717949 Z" stroke-width="6"></path>
                                                </g>
                                            </g>
                                            <rect id="Rectangle-path" stroke="#333333" stroke-width="8" fill="#F8FDFD" x="0" y="49.4705128" width="250.526316" height="22.1038462"></rect>
                                            <path d="M246.315789,66.3115385 L4.21052632,66.3115385" id="Shape" stroke="#BCECE8" stroke-width="4"></path>
                                        </g>
                                    </g>
                                    <g id="Group" transform="translate(0.000000, 73.679487)">
                                        <path d="M94.7368421,11.4729487 C94.7368421,5.1575641 89.5789474,0 83.2631579,0 L77.8947368,0 C71.5789474,0 66.4210526,5.1575641 66.4210526,11.4729487 L66.4210526,34.7346154 C66.4210526,41.05 71.5789474,46.2075641 77.8947368,46.2075641 L83.2631579,46.2075641 C89.5789474,46.2075641 94.7368421,41.05 94.7368421,34.7346154 L94.7368421,11.4729487 L94.7368421,11.4729487 Z" id="Shape" stroke="#333333" stroke-width="6" fill="#EEFAF9"></path>
                                        <path d="M71.0526316,38.9448718 L90.9473684,38.9448718 C89.4736842,41.4710256 86.8421053,43.1551282 83.6842105,43.1551282 L78.3157895,43.1551282 C75.2631579,43.1551282 72.5263158,41.4710256 71.0526316,38.9448718 L71.0526316,38.9448718 Z" id="Shape" fill="#BCECE8"></path>
                                        <path d="M72.6315789,33.6820513 L14.7368421,33.6820513 L14.7368421,33.6820513 C8.42105263,33.6820513 4,29.0507692 4,23.1564103 C4,17.2620513 8.84210526,12.6307692 14.8421053,12.6307692 L14.7368421,12.6307692 L72.6315789,12.6307692 C78.5263158,12.6307692 83.3684211,17.2620513 83.3684211,23.1564103 C83.3684211,29.0507692 78.5263158,33.6820513 72.6315789,33.6820513 L72.6315789,33.6820513 Z" id="Shape" stroke="#333333" stroke-width="6" fill="#EEFAF9"></path>
                                        <path d="M8.10526316,26.3141026 L79.4736842,26.3141026 C78.3157895,28.8402564 75.6842105,30.524359 72.6315789,30.524359 L15.3684211,30.524359 L15.2631579,30.524359 C11.8947368,30.524359 9.36842105,28.8402564 8.10526316,26.3141026 L8.10526316,26.3141026 Z" id="Shape" fill="#BCECE8"></path>
                                        <ellipse id="Oval" stroke="#333333" stroke-width="6" fill="#EEFAF9" cx="14.7368421" cy="22.9458974" rx="14" ry="13.9991026"></ellipse>
                                        <path d="M12.3157895,19.5776923 C14.2105263,18.209359 16.8421053,18.6303846 18.2105263,20.525 C19.5789474,22.4196154 19.1578947,25.0510256 17.2631579,26.419359 C15.3684211,27.7876923 12.7368421,27.3666667 11.3684211,25.4720513 C10,23.5774359 10.4210526,20.9460256 12.3157895,19.5776923 L12.3157895,19.5776923 Z" id="Shape" fill="#333333"></path>
                                    </g>
                                </g>
                            </g>
                            <g id="Kick" transform="translate(63.157895, 206.302564)">
                                <g id="Kick-Stand" transform="translate(0.000000, 173.673077)" stroke-width="6" stroke="#333333" fill="#EEFAF9">
                                    <g id="Group">
                                        <path d="M15.0526316,10.8414103 C15.3684211,4.94705128 20.6315789,0.315769231 26.6315789,0.631538462 C32.5263158,0.947307692 37.4736842,5.89435897 37.1578947,11.8939744 L34.3157895,72.9426923 L12.2105263,71.8901282 L15.0526316,10.8414103 L15.0526316,10.8414103 Z" id="Shape"></path>
                                    </g>
                                    <g id="Group" transform="translate(456.842105, 0.000000)">
                                        <path d="M22.3157895,10.8414103 C22,4.94705128 16.7368421,0.315769231 10.7368421,0.631538462 C4.84210526,0.947307692 -0.105263158,5.89435897 0.210526316,11.8939744 L3.05263158,72.9426923 L25.1578947,71.8901282 L22.3157895,10.8414103 L22.3157895,10.8414103 Z" id="Shape"></path>
                                    </g>
                                </g>
                                <g id="Kick-Drum" transform="translate(9.473684, 0.000000)">
                                    <ellipse id="Oval" stroke="#333333" stroke-width="8" fill="#0BC1F8" cx="237.578947" cy="221.038462" rx="221.052632" ry="221.038462"></ellipse>
                                    <ellipse id="Inner-Drum-Wobble" cx="237.578947" cy="221.038462" rx="211.789474" ry="211.775897"></ellipse>
                                    <ellipse id="Inner-Drum" stroke="#333333" stroke-width="8" fill="#FDFFFC" cx="237.578947" cy="221.038462" rx="202.736842" ry="202.723846"></ellipse>
                                    <g id="Drum-Logo-Wobble" transform="translate(145.263158, 62.101282)">
                                        <g id="Group">
                                            <path d="M34.3157895,8.63102564 L29.7894737,29.5770513 L30.6315789,29.5770513 C38.1052632,29.5770513 43.4736842,20.8407692 43.4736842,13.7885897 C43.4736842,8.73628205 40.6315789,4.31551282 33.5789474,4.31551282 C18.9473684,4.31551282 9.26315789,12.5255128 9.26315789,26.2088462 C9.26315789,30.8401282 10.4210526,31.5769231 10.5263158,32.3137179 C4.31578947,32.3137179 0.842105263,30.1033333 0.842105263,23.5774359 C0.842105263,11.5782051 17.4736842,0.10525641 32.5263158,0.10525641 C46.7368421,0.10525641 52.9473684,7.1574359 52.9473684,14.5253846 C52.9473684,19.9987179 49.4736842,26.3141026 43.2631579,29.8928205 C48,31.2611538 49.4736842,34.629359 49.4736842,38.9448718 C49.4736842,46.3128205 45.0526316,56.2069231 45.0526316,61.7855128 C45.0526316,64.5221795 46.4210526,66.9430769 48.5263158,67.7851282 C44.7368421,68.8376923 41.7894737,69.3639744 39.5789474,69.3639744 C33.6842105,69.3639744 32.5263158,66.3115385 32.5263158,63.364359 C32.5263158,57.3647436 37.2631579,46.5233333 37.2631579,39.6816667 C37.2631579,36.1029487 35.8947368,33.5767949 31.8947368,33.5767949 C31.0526316,33.5767949 30.1052632,33.6820513 29.0526316,33.8925641 L21.7894737,67.8903846 L8.84210526,67.8903846 L21.1578947,10.525641 L34.3157895,8.63102564 L34.3157895,8.63102564 Z" id="Shape"></path>
                                            <path d="M127.052632,22.5248718 C124.105263,22.5248718 121.368421,23.5774359 119.263158,25.1562821 L123.578947,4.73653846 L110.210526,6.52589744 L100.210526,53.365 C99.8947368,54.9438462 99.6842105,56.3121795 99.6842105,57.5752564 C98,58.7330769 96.3157895,59.5751282 94.9473684,59.5751282 C91.3684211,59.5751282 90.4210526,58.1015385 90.4210526,56.1016667 C90.4210526,55.2596154 90.6315789,53.9965385 90.7368421,53.0492308 L97.2631579,22.1038462 L84.3157895,22.1038462 L77.7894737,53.0492308 C77.4736842,54.1017949 77.3684211,55.2596154 77.2631579,56.2069231 C75.0526316,57.9962821 72.7368421,59.5751282 70.8421053,59.5751282 C67.2631579,59.5751282 66.3157895,58.2067949 66.3157895,56.2069231 C66.3157895,55.3648718 66.5263158,54.1017949 66.6315789,53.1544872 L73.1578947,22.2091026 L60.2105263,22.2091026 L53.6842105,53.1544872 C53.3684211,54.8385897 53.1578947,56.5226923 53.1578947,57.8910256 C53.1578947,64.6274359 57.4736842,67.7851282 64.4210526,67.7851282 C68.3157895,67.7851282 73.1578947,64.2064103 77.3684211,60.2066667 C78.2105263,65.4694872 82.3157895,67.7851282 88.4210526,67.7851282 C91.8947368,67.7851282 96.2105263,64.8379487 100.105263,61.3644872 C101.684211,66.3115385 107.052632,68.1008974 114.421053,68.1008974 C130.526316,68.1008974 138.315789,48.2074359 138.315789,33.9978205 C138.421053,28.6297436 135.684211,22.5248718 127.052632,22.5248718 L127.052632,22.5248718 Z M116.421053,61.575 C113.684211,61.575 112.421053,60.9434615 112.421053,58.2067949 C112.421053,57.0489744 112.736842,55.3648718 113.157895,53.2597436 L118.315789,29.0507692 C119.157895,28.4192308 122.315789,27.7876923 123.157895,27.7876923 C125.368421,27.7876923 128.315789,29.0507692 128.315789,34.4188462 C128.315789,41.05 123.894737,61.575 116.421053,61.575 L116.421053,61.575 Z" id="Shape"></path>
                                            <path d="M159.052632,22.6301282 L152.421053,53.2597436 C152.105263,54.2070513 152,55.2596154 152,56.1016667 C152,58.1015385 152.947368,59.4698718 156.526316,59.4698718 C158.631579,59.4698718 161.052632,57.8910256 163.368421,55.8911538 L170.421053,22.6301282 L183.473684,22.6301282 L172.421053,74.9425641 C169.684211,87.7838462 162,90.31 156,90.31 C150.526316,90.31 145.368421,86.4155128 145.368421,80.5211538 C145.368421,72.100641 152.421053,69.4692308 160.947368,67.0483333 L162.315789,60.8382051 C158.210526,64.5221795 153.684211,67.7851282 150.105263,67.7851282 C143.052632,67.7851282 138.947368,64.7326923 138.947368,57.9962821 C138.947368,56.5226923 139.157895,55.154359 139.473684,53.365 L145.789474,22.7353846 L159.052632,22.7353846 L159.052632,22.6301282 Z M154,82.3105128 C155.789474,82.3105128 158.210526,80.6264103 159.368421,75.2583333 L160.421053,69.8902564 C154.736842,71.7848718 150.421053,74.4162821 150.421053,79.2580769 C150.315789,80.5211538 152,82.3105128 154,82.3105128 L154,82.3105128 Z" id="Shape"></path>
                                        </g>
                                        <path d="M7.36842105,78.9423077 L136.842105,78.9423077" id="Shape"></path>
                                    </g>
                                    <g id="Drum-Logo" transform="translate(149.473684, 63.153846)">
                                        <g id="Group" fill="#333333">
                                            <path d="M32.4210526,9.05205128 L28.1052632,29.1560256 L28.8421053,29.1560256 C36,29.1560256 41.1578947,20.7355128 41.1578947,13.9991026 C41.1578947,9.15730769 38.4210526,4.94705128 31.6842105,4.94705128 C17.6842105,4.94705128 8.31578947,12.8412821 8.31578947,25.9983333 C8.31578947,30.4191026 9.47368421,31.050641 9.57894737,31.8926923 C3.57894737,31.8926923 0.315789474,29.6823077 0.315789474,23.4721795 C0.315789474,11.9992308 16.2105263,0.947307692 30.7368421,0.947307692 C44.4210526,0.947307692 50.4210526,7.68371795 50.4210526,14.8411538 C50.4210526,20.1039744 47.0526316,26.2088462 41.0526316,29.6823077 C45.5789474,30.9453846 47.0526316,34.3135897 47.0526316,38.3133333 C47.0526316,45.3655128 42.8421053,54.8385897 42.8421053,60.2066667 C42.8421053,62.8380769 44.1052632,65.1537179 46.2105263,65.8905128 C42.5263158,66.9430769 39.6842105,67.3641026 37.6842105,67.3641026 C32.1052632,67.3641026 30.9473684,64.4169231 30.9473684,61.575 C30.9473684,55.8911538 35.4736842,45.3655128 35.4736842,38.8396154 C35.4736842,35.3661538 34.2105263,32.9452564 30.3157895,32.9452564 C29.5789474,32.9452564 28.6315789,33.0505128 27.5789474,33.2610256 L20.6315789,65.8905128 L8.21052632,65.8905128 L20,10.8414103 L32.4210526,9.05205128 L32.4210526,9.05205128 Z" id="Shape"></path>
                                            <path d="M121.368421,22.314359 C118.526316,22.314359 115.894737,23.3669231 113.894737,24.8405128 L118,5.1575641 L105.157895,6.84166667 L95.5789474,51.7861538 C95.2631579,53.2597436 95.0526316,54.6280769 95.0526316,55.7858974 C93.4736842,56.9437179 91.8947368,57.6805128 90.4210526,57.6805128 C86.9473684,57.6805128 86.1052632,56.3121795 86.1052632,54.4175641 C86.1052632,53.6807692 86.3157895,52.5229487 86.4210526,51.575641 L92.6315789,21.9985897 L80.2105263,21.9985897 L74,51.575641 C73.7894737,52.6282051 73.5789474,53.6807692 73.4736842,54.5228205 C71.2631579,56.2069231 69.1578947,57.6805128 67.3684211,57.6805128 C63.8947368,57.6805128 63.0526316,56.3121795 63.0526316,54.4175641 C63.0526316,53.6807692 63.2631579,52.5229487 63.3684211,51.575641 L69.5789474,21.9985897 L57.1578947,21.9985897 L50.9473684,51.575641 C50.6315789,53.2597436 50.4210526,54.8385897 50.4210526,56.1016667 C50.4210526,62.6275641 54.5263158,65.5747436 61.2631579,65.5747436 C64.9473684,65.5747436 69.6842105,62.1012821 73.6842105,58.3120513 C74.4210526,63.364359 78.4210526,65.5747436 84.3157895,65.5747436 C87.6842105,65.5747436 91.7894737,62.7328205 95.5789474,59.3646154 C97.1578947,64.2064103 102.210526,65.7852564 109.368421,65.7852564 C124.842105,65.7852564 132.315789,46.6285897 132.315789,33.0505128 C132.421053,28.2087179 129.684211,22.314359 121.368421,22.314359 L121.368421,22.314359 Z M111.263158,59.8908974 C108.631579,59.8908974 107.473684,59.259359 107.473684,56.7332051 C107.473684,55.5753846 107.684211,54.1017949 108.210526,51.9966667 L113.157895,28.8402564 C113.894737,28.2087179 116.947368,27.5771795 117.789474,27.5771795 C120,27.5771795 122.736842,28.8402564 122.736842,33.9978205 C122.736842,40.2079487 118.315789,59.8908974 111.263158,59.8908974 L111.263158,59.8908974 Z" id="Shape"></path>
                                            <path d="M152.105263,22.5248718 L145.789474,51.8914103 C145.578947,52.8387179 145.368421,53.7860256 145.368421,54.6280769 C145.368421,56.5226923 146.315789,57.7857692 149.684211,57.7857692 C151.684211,57.7857692 154,56.2069231 156.210526,54.3123077 L162.947368,22.4196154 L175.473684,22.4196154 L164.947368,72.6269231 C162.315789,85.0471795 154.947368,87.3628205 149.157895,87.3628205 C143.894737,87.3628205 138.947368,83.6788462 138.947368,77.995 C138.947368,69.9955128 145.684211,67.469359 153.894737,65.0484615 L155.157895,59.0488462 C151.263158,62.6275641 146.842105,65.68 143.368421,65.68 C136.631579,65.68 132.631579,62.7328205 132.631579,56.2069231 C132.631579,54.8385897 132.842105,53.4702564 133.157895,51.7861538 L139.263158,22.4196154 L152.105263,22.4196154 L152.105263,22.5248718 Z M147.263158,79.6791026 C148.947368,79.6791026 151.368421,77.995 152.421053,72.9426923 L153.473684,67.8903846 C148,69.6797436 143.894737,72.2058974 143.894737,76.8371795 C143.789474,78.1002564 145.368421,79.6791026 147.263158,79.6791026 L147.263158,79.6791026 Z" id="Shape"></path>
                                        </g>
                                        <path d="M7.36842105,76.8371795 L130.526316,76.8371795" id="Shape" stroke="#333333" stroke-width="6"></path>
                                    </g>
                                    <g id="Group" transform="translate(0.000000, 13.683333)">
                                        <g transform="translate(0.000000, 186.303846)" id="Shape" stroke-width="8" stroke="#333333" fill="#EEFAF9">
                                            <g>
                                                <path d="M11.5789474,10.2098718 C5.26315789,10.2098718 0.526315789,15.1569231 0.526315789,21.2617949 C0.526315789,27.3666667 5.26315789,32.3137179 11.5789474,32.3137179 L11.5789474,42.1025641 L32.6315789,42.1025641 L32.6315789,0 L11.5789474,0 L11.5789474,10.2098718 L11.5789474,10.2098718 Z"></path>
                                            </g>
                                        </g>
                                        <g transform="translate(441.052632, 186.303846)" id="Shape" stroke-width="8" stroke="#333333" fill="#EEFAF9">
                                            <g>
                                                <path d="M21.0526316,31.8926923 C27.3684211,31.8926923 32.1052632,26.945641 32.1052632,20.8407692 C32.1052632,14.7358974 27.3684211,9.78884615 21.0526316,9.78884615 L21.0526316,0 L0,0 L0,42.1025641 L21.0526316,42.1025641 L21.0526316,31.8926923 L21.0526316,31.8926923 Z"></path>
                                            </g>
                                        </g>
                                        <g transform="translate(321.052632, 0.000000)" id="Shape">
                                            <g>
                                                <path d="M38.6315789,17.5778205 C41.7894737,12.1044872 39.8947368,5.57858974 34.6315789,2.52615385 C29.3684211,-0.526282051 22.7368421,1.0525641 19.5789474,6.52589744 L11.1578947,1.68410256 L0.631578947,19.8934615 L37.0526316,40.9447436 L47.5789474,22.7353846 L38.6315789,17.5778205 L38.6315789,17.5778205 Z" stroke="#333333" stroke-width="8" fill="#EEFAF9"></path>
                                                <path d="M29.8947368,10.4203846 C28.8421053,9.89410256 27.5789474,10.2098718 27.0526316,11.1571795 C26.4210526,12.2097436 26.8421053,13.4728205 27.7894737,13.9991026 C28.8421053,14.630641 30.1052632,14.2096154 30.6315789,13.2623077 C31.2631579,12.315 30.8421053,10.9466667 29.8947368,10.4203846 L29.8947368,10.4203846 Z" fill="#333333"></path>
                                            </g>
                                            <path d="M7.36842105,16.6305128 L36.5263158,33.4715385" stroke="#BCECE8" stroke-width="4"></path>
                                        </g>
                                        <g transform="translate(106.315789, 1.052564)" id="Shape">
                                            <g>
                                                <path d="M28.1052632,5.78910256 C24.9473684,0.315769231 18.3157895,-1.26307692 13.0526316,1.78935897 C7.78947368,4.84179487 5.89473684,11.3676923 9.05263158,16.8410256 L0.526315789,21.7880769 L11.0526316,39.9974359 L47.4736842,18.9461538 L36.9473684,0.736794872 L28.1052632,5.78910256 L28.1052632,5.78910256 Z" stroke="#333333" stroke-width="8" fill="#EEFAF9"></path>
                                                <path d="M17.3684211,9.68358974 C16.4210526,10.3151282 16,11.5782051 16.6315789,12.5255128 C17.2631579,13.5780769 18.5263158,13.8938462 19.4736842,13.2623077 C20.5263158,12.6307692 20.8421053,11.3676923 20.2105263,10.4203846 C19.6842105,9.47307692 18.4210526,9.05205128 17.3684211,9.68358974 L17.3684211,9.68358974 Z" fill="#333333"></path>
                                            </g>
                                            <path d="M11.3684211,32.4189744 L40.6315789,15.5779487" stroke="#BCECE8" stroke-width="4"></path>
                                        </g>
                                    </g>
                                </g>
                            </g>
                        </g>
                        <g id="Crash" transform="translate(37.842105, 0.000000)">
                            <g id="Crash-Stand-Top">
                                <path d="M156.894737,67.6798718 L178.263158,8.94679487 C179.421053,5.89435897 177.947368,2.52615385 174.894737,1.36833333 C171.842105,0.210512821 168.578947,1.89461538 167.421053,4.94705128 L146.052632,63.6801282 L156.894737,67.6798718 L156.894737,67.6798718 Z" id="Shape" stroke="#333333" stroke-width="6" fill="#EEFAF9"></path>
                                <path d="M175.210526,26.5246154 C176.894737,21.9985897 174.578947,17.0515385 170.052632,15.3674359 L169.526316,15.1569231 C165,13.4728205 160.052632,15.7884615 158.368421,20.3144872 L89.7368421,209.039231 L106.578947,215.144103 L175.210526,26.5246154 L175.210526,26.5246154 Z" id="Shape" stroke="#333333" stroke-width="6" fill="#EEFAF9"></path>
                                <path d="M137,63.890641 C137,63.9958974 136.894737,64.1011538 136.894737,64.1011538 L136.684211,64.6274359 C135,69.1534615 137.421053,74.1005128 141.842105,75.7846154 L152.263158,79.5738462 C156.789474,81.2579487 161.736842,78.8370513 163.421053,74.4162821 L163.631579,73.89 C163.631579,73.7847436 163.631579,73.6794872 163.736842,73.6794872 L137,63.890641 L137,63.890641 Z" id="Shape" stroke="#333333" stroke-width="6" fill="#5C5C5C"></path>
                                <path d="M175.526316,40.9447436 C175.526316,40.8394872 175.631579,40.7342308 175.631579,40.7342308 L175.842105,40.2079487 C177.526316,35.6819231 175.210526,30.7348718 170.684211,29.0507692 L160.263158,25.2615385 C155.736842,23.5774359 150.789474,25.8930769 149.105263,30.4191026 L148.894737,30.9453846 C148.894737,31.050641 148.894737,31.1558974 148.789474,31.1558974 L175.526316,40.9447436 L175.526316,40.9447436 Z" id="Shape" stroke="#333333" stroke-width="6" fill="#5C5C5C"></path>
                                <g id="Crash-Cymbol">
                                    <path d="M297.842105,104.835385 L246.578947,85.1524359 C210.894737,71.4691026 197.210526,61.1539744 188.894737,51.9966667 C185.421053,48.4179487 178.578947,41.9973077 171.105263,39.260641 C168.789474,38.4185897 161.947368,35.8924359 161.947368,35.8924359 C161.947368,35.8924359 161.947368,35.8924359 161.842105,35.8924359 L161.736842,35.8924359 C161.736842,35.8924359 154.789474,33.3662821 152.578947,32.5242308 C145.105263,29.7875641 135.631579,30.3138462 130.789474,30.8401282 C118.473684,32.4189744 101.315789,31.5769231 65.2105263,19.1566667 L13.3157895,1.26307692 C7.63157895,-0.842051282 2.15789474,0.947307692 0.578947368,5.36807692 L0.473684211,5.47333333 C-1.10526316,9.89410256 1.63157895,14.5253846 7.42105263,16.6305128 L149.947368,68.5219231 L150.052632,68.5219231 L150.157895,68.5219231 L292.684211,120.413333 C298.368421,122.518462 303.526316,120.729103 305.210526,116.308333 L305.315789,116.203077 C306.578947,111.782308 303.526316,106.940513 297.842105,104.835385 L297.842105,104.835385 Z" id="Shape" stroke="#333333" stroke-width="6" fill="#FDE74C"></path>
                                    <path d="M171.947368,47.470641 L144.894737,37.6817949" id="Shape" stroke="#FEF5B7" stroke-width="4"></path>
                                </g>
                            </g>
                            <g id="Crash-Stand" transform="translate(3.210526, 197.882051)">
                                <rect id="Rectangle-path" stroke="#333333" stroke-width="6" fill="#EEFAF9" x="85.2631579" y="14.7358974" width="17.8947368" height="430.498718"></rect>
                                <g id="Group" transform="translate(80.000000, 210.512821)" stroke="#333333" stroke-width="6" fill="#EEFAF9">
                                    <ellipse id="Oval" cx="31.2631579" cy="22.6301282" rx="10.5263158" ry="10.525641"></ellipse>
                                    <path d="M28.4210526,34.8398718 C28.4210526,41.1552564 23.2631579,46.3128205 16.9473684,46.3128205 L11.5789474,46.3128205 C5.26315789,46.3128205 0.105263158,41.1552564 0.105263158,34.8398718 L0.105263158,11.5782051 C0.105263158,5.26282051 5.26315789,0.10525641 11.5789474,0.10525641 L16.9473684,0.10525641 C23.2631579,0.10525641 28.4210526,5.26282051 28.4210526,11.5782051 L28.4210526,34.8398718 L28.4210526,34.8398718 Z" id="Shape"></path>
                                </g>
                                <g id="Group" transform="translate(80.000000, 0.000000)">
                                    <path d="M0.421052632,14.5253846 C0.421052632,6.63115385 6.73684211,0.315769231 14.6315789,0.315769231 C22.5263158,0.315769231 28.8421053,6.63115385 28.8421053,14.5253846 C28.8421053,22.4196154 22.5263158,28.735 14.6315789,28.735 C6.73684211,28.735 0.421052632,22.314359 0.421052632,14.5253846 L0.421052632,14.5253846 Z" id="Shape" stroke="#333333" stroke-width="6" fill="#EEFAF9"></path>
                                    <path d="M17.1578947,11.0519231 C15.2631579,9.68358974 12.6315789,10.1046154 11.2631579,11.9992308 C9.89473684,13.8938462 10.3157895,16.5252564 12.2105263,17.8935897 C14.1052632,19.2619231 16.7368421,18.8408974 18.1052632,16.9462821 C19.4736842,15.0516667 19.0526316,12.4202564 17.1578947,11.0519231 L17.1578947,11.0519231 Z" id="Shape" fill="#333333"></path>
                                </g>
                            </g>
                        </g>
                    </g>
                </g>
            </g>
        </g>
    </g>
</svg>